<mxfile host="65bd71144e">
    <diagram id="-NUjzAb5o3dKZaJfqA4X" name="Страница 1">
        <mxGraphModel dx="4557" dy="1035" grid="1" gridSize="10" guides="1" tooltips="1" connect="1" arrows="1" fold="1" page="1" pageScale="1" pageWidth="827" pageHeight="1169" math="0" shadow="0">
            <root>
                <mxCell id="0"/>
                <mxCell id="1" parent="0"/>
                <object placeholders="1" c4Name="Пользователь" c4Type="Person" c4Description="Выбирает фильмы и &#10;приглашает других &#10;для совместного&#10;просмотра" label="&lt;b&gt;%c4Name%&lt;/b&gt;&lt;div&gt;[%c4Type%]&lt;/div&gt;&lt;br&gt;&lt;div&gt;%c4Description%&lt;/div&gt;" id="2">
                    <mxCell style="html=1;dashed=0;whitespace=wrap;fillColor=#08427b;strokeColor=none;fontColor=#ffffff;shape=mxgraph.c4.person;align=center;metaEdit=1;points=[[0.5,0,0],[1,0.5,0],[1,0.75,0],[0.75,1,0],[0.5,1,0],[0.25,1,0],[0,0.75,0],[0,0.5,0]];metaData={&quot;c4Type&quot;:{&quot;editable&quot;:false}};" vertex="1" parent="1">
                        <mxGeometry x="340" y="50" width="160" height="150" as="geometry"/>
                    </mxCell>
                </object>
                <object placeholders="1" c4Name="Платежная система" c4Type="Software System" c4Description="Обеспечивает обработку платежей для управления сервисом подписки" label="&lt;b&gt;%c4Name%&lt;/b&gt;&lt;div&gt;[%c4Type%]&lt;/div&gt;&lt;br&gt;&lt;div&gt;%c4Description%&lt;/div&gt;" id="3">
                    <mxCell style="rounded=1;whiteSpace=wrap;html=1;labelBackgroundColor=none;fillColor=#999999;fontColor=#ffffff;align=center;arcSize=10;strokeColor=#8A8A8A;metaEdit=1;metaData={&quot;c4Type&quot;:{&quot;editable&quot;:false}};points=[[0.25,0,0],[0.5,0,0],[0.75,0,0],[1,0.25,0],[1,0.5,0],[1,0.75,0],[0.75,1,0],[0.5,1,0],[0.25,1,0],[0,0.75,0],[0,0.5,0],[0,0.25,0]];" vertex="1" parent="1">
                        <mxGeometry x="-80" y="240" width="200" height="120" as="geometry"/>
                    </mxCell>
                </object>
                <object placeholders="1" c4Name="Система мэтчинга фильмов" c4Type="Software System" c4Description="Анализ заданных предпочтений и запуск процесса поиска совпадений фильмов по подборке в ранее созданной сессии " label="&lt;b&gt;%c4Name%&lt;/b&gt;&lt;div&gt;[%c4Type%]&lt;/div&gt;&lt;br&gt;&lt;div&gt;%c4Description%&lt;/div&gt;" link="data:page/id,m8YwtpOqiCS0dB1lspsB" id="4">
                    <mxCell style="rounded=1;whiteSpace=wrap;html=1;labelBackgroundColor=none;fillColor=#1168BD;fontColor=#ffffff;align=center;arcSize=10;strokeColor=#1168BD;metaEdit=1;metaData={&quot;c4Type&quot;:{&quot;editable&quot;:false}};points=[[0.25,0,0],[0.5,0,0],[0.75,0,0],[1,0.25,0],[1,0.5,0],[1,0.75,0],[0.75,1,0],[0.5,1,0],[0.25,1,0],[0,0.75,0],[0,0.5,0],[0,0.25,0]];" vertex="1" parent="1">
                        <mxGeometry x="320" y="400" width="200" height="120" as="geometry"/>
                    </mxCell>
                </object>
                <object placeholders="1" c4Name="Система поддержки пользователей" c4Type="Software System" c4Description="Взаимодействует с клиентами" label="&lt;b&gt;%c4Name%&lt;/b&gt;&lt;div&gt;[%c4Type%]&lt;/div&gt;&lt;br&gt;&lt;div&gt;%c4Description%&lt;/div&gt;" id="5">
                    <mxCell style="rounded=1;whiteSpace=wrap;html=1;labelBackgroundColor=none;fillColor=#999999;fontColor=#ffffff;align=center;arcSize=10;strokeColor=#8A8A8A;metaEdit=1;metaData={&quot;c4Type&quot;:{&quot;editable&quot;:false}};points=[[0.25,0,0],[0.5,0,0],[0.75,0,0],[1,0.25,0],[1,0.5,0],[1,0.75,0],[0.75,1,0],[0.5,1,0],[0.25,1,0],[0,0.75,0],[0,0.5,0],[0,0.25,0]];" vertex="1" parent="1">
                        <mxGeometry x="720" y="240" width="200" height="120" as="geometry"/>
                    </mxCell>
                </object>
                <mxCell id="6" value="" style="group" connectable="0" vertex="1" parent="1">
                    <mxGeometry x="140" y="990" width="696" height="220" as="geometry"/>
                </mxCell>
                <mxCell id="7" value="&lt;b&gt;Контекстная диаграмма&lt;/b&gt;" style="text;html=1;align=left;verticalAlign=middle;resizable=0;points=[];autosize=1;fontColor=#666666;" vertex="1" parent="6">
                    <mxGeometry x="57" y="-60" width="170" height="30" as="geometry"/>
                </mxCell>
                <mxCell id="8" value="" style="rounded=1;whiteSpace=wrap;html=1;fillColor=none;strokeColor=#666666;dashed=1;dashPattern=1 2;fontColor=#666666;" vertex="1" parent="6">
                    <mxGeometry x="48" y="-30" width="470" height="140" as="geometry"/>
                </mxCell>
                <mxCell id="9" value="Legend" style="text;html=1;strokeColor=none;fillColor=none;align=center;verticalAlign=middle;whiteSpace=wrap;rounded=0;fontStyle=1;fontColor=#666666;" vertex="1" parent="6">
                    <mxGeometry x="67" y="-20" width="40" height="20" as="geometry"/>
                </mxCell>
                <object placeholders="1" c4Name="name" c4Type="Person" c4Description="Description" label="&lt;b style=&quot;font-size: 9px;&quot;&gt;%c4Name%&lt;/b&gt;&lt;div style=&quot;font-size: 9px;&quot;&gt;[%c4Type%]&lt;/div&gt;&lt;br style=&quot;font-size: 9px;&quot;&gt;&lt;div style=&quot;font-size: 9px;&quot;&gt;%c4Description%&lt;/div&gt;" id="10">
                    <mxCell style="html=1;dashed=0;whitespace=wrap;fillColor=#08427b;strokeColor=none;fontColor=#ffffff;shape=mxgraph.c4.person;align=center;metaEdit=1;points=[[0.5,0,0],[1,0.5,0],[1,0.75,0],[0.75,1,0],[0.5,1,0],[0.25,1,0],[0,0.75,0],[0,0.5,0]];metaData={&quot;c4Type&quot;:{&quot;editable&quot;:false}};fontSize=9;" vertex="1" parent="6">
                        <mxGeometry x="67" y="5" width="60" height="80" as="geometry"/>
                    </mxCell>
                </object>
                <object placeholders="1" c4Name="name" c4Type="Software System" c4Description="Description" label="&lt;b style=&quot;font-size: 9px;&quot;&gt;%c4Name%&lt;/b&gt;&lt;div style=&quot;font-size: 9px;&quot;&gt;[%c4Type%]&lt;/div&gt;&lt;br style=&quot;font-size: 9px;&quot;&gt;&lt;div style=&quot;font-size: 9px;&quot;&gt;%c4Description%&lt;/div&gt;" id="11">
                    <mxCell style="rounded=1;whiteSpace=wrap;html=1;labelBackgroundColor=none;fillColor=#1168BD;fontColor=#ffffff;align=center;arcSize=10;strokeColor=#1168BD;metaEdit=1;metaData={&quot;c4Type&quot;:{&quot;editable&quot;:false}};points=[[0.25,0,0],[0.5,0,0],[0.75,0,0],[1,0.25,0],[1,0.5,0],[1,0.75,0],[0.75,1,0],[0.5,1,0],[0.25,1,0],[0,0.75,0],[0,0.5,0],[0,0.25,0]];fontSize=9;" vertex="1" parent="6">
                        <mxGeometry x="146" y="12.5" width="90" height="65" as="geometry"/>
                    </mxCell>
                </object>
                <object placeholders="1" c4Name="name" c4Type="Software System" c4Description="Description" label="&lt;b style=&quot;font-size: 9px;&quot;&gt;%c4Name%&lt;/b&gt;&lt;div style=&quot;font-size: 9px;&quot;&gt;[%c4Type%]&lt;/div&gt;&lt;br style=&quot;font-size: 9px;&quot;&gt;&lt;div style=&quot;font-size: 9px;&quot;&gt;%c4Description%&lt;/div&gt;" id="12">
                    <mxCell style="rounded=1;whiteSpace=wrap;html=1;labelBackgroundColor=none;fillColor=#999999;fontColor=#ffffff;align=center;arcSize=10;strokeColor=#8A8A8A;metaEdit=1;metaData={&quot;c4Type&quot;:{&quot;editable&quot;:false}};points=[[0.25,0,0],[0.5,0,0],[0.75,0,0],[1,0.25,0],[1,0.5,0],[1,0.75,0],[0.75,1,0],[0.5,1,0],[0.25,1,0],[0,0.75,0],[0,0.5,0],[0,0.25,0]];fontSize=9;" vertex="1" parent="6">
                        <mxGeometry x="251.5" y="12.5" width="90" height="65" as="geometry"/>
                    </mxCell>
                </object>
                <object placeholders="1" c4Type="Relationship" c4Technology="technology" c4Description="Relationship" label="&lt;div style=&quot;text-align: left; font-size: 9px;&quot;&gt;&lt;div style=&quot;text-align: center; font-size: 9px;&quot;&gt;&lt;b style=&quot;font-size: 9px;&quot;&gt;%c4Description%&lt;/b&gt;&lt;/div&gt;&lt;div style=&quot;text-align: center; font-size: 9px;&quot;&gt;[%c4Technology%]&lt;/div&gt;&lt;/div&gt;" id="13">
                    <mxCell style="edgeStyle=none;rounded=0;html=1;jettySize=auto;orthogonalLoop=1;strokeColor=#707070;strokeWidth=2;fontColor=#707070;jumpStyle=none;dashed=1;metaEdit=1;metaData={&quot;c4Type&quot;:{&quot;editable&quot;:false}};fontSize=9;" edge="1" parent="6">
                        <mxGeometry width="160" relative="1" as="geometry">
                            <mxPoint x="362" y="44.56999999999999" as="sourcePoint"/>
                            <mxPoint x="502" y="44.56999999999999" as="targetPoint"/>
                        </mxGeometry>
                    </mxCell>
                </object>
                <object placeholders="1" c4Name="Система уведомлений" c4Type="Software System" c4Description="Отправляет уведомления пользователям о статусе мэтча, рекомендованных подборках, изменениях в системе и прочее" label="&lt;b&gt;%c4Name%&lt;/b&gt;&lt;div&gt;[%c4Type%]&lt;/div&gt;&lt;br&gt;&lt;div&gt;%c4Description%&lt;/div&gt;" id="14">
                    <mxCell style="rounded=1;whiteSpace=wrap;html=1;labelBackgroundColor=none;fillColor=#999999;fontColor=#ffffff;align=center;arcSize=10;strokeColor=#8A8A8A;metaEdit=1;metaData={&quot;c4Type&quot;:{&quot;editable&quot;:false}};points=[[0.25,0,0],[0.5,0,0],[0.75,0,0],[1,0.25,0],[1,0.5,0],[1,0.75,0],[0.75,1,0],[0.5,1,0],[0.25,1,0],[0,0.75,0],[0,0.5,0],[0,0.25,0]];" vertex="1" parent="1">
                        <mxGeometry x="-80" y="400" width="200" height="120" as="geometry"/>
                    </mxCell>
                </object>
                <object placeholders="1" c4Name="Система каталога подборок и рекомендаций контента" c4Type="Software System" c4Description="Платформа рекомендаций фильмов для подборки персонализированного контента" label="&lt;b&gt;%c4Name%&lt;/b&gt;&lt;div&gt;[%c4Type%]&lt;/div&gt;&lt;br&gt;&lt;div&gt;%c4Description%&lt;/div&gt;" id="15">
                    <mxCell style="rounded=1;whiteSpace=wrap;html=1;labelBackgroundColor=none;fillColor=#999999;fontColor=#ffffff;align=center;arcSize=10;strokeColor=#8A8A8A;metaEdit=1;metaData={&quot;c4Type&quot;:{&quot;editable&quot;:false}};points=[[0.25,0,0],[0.5,0,0],[0.75,0,0],[1,0.25,0],[1,0.5,0],[1,0.75,0],[0.75,1,0],[0.5,1,0],[0.25,1,0],[0,0.75,0],[0,0.5,0],[0,0.25,0]];" vertex="1" parent="1">
                        <mxGeometry x="600" y="760" width="200" height="120" as="geometry"/>
                    </mxCell>
                </object>
                <object placeholders="1" c4Name="Система воспроизведения контента" c4Type="Software System" c4Description="Платформа для хранения, обработки и потоковой передачи видео." label="&lt;b&gt;%c4Name%&lt;/b&gt;&lt;div&gt;[%c4Type%]&lt;/div&gt;&lt;br&gt;&lt;div&gt;%c4Description%&lt;/div&gt;" id="16">
                    <mxCell style="rounded=1;whiteSpace=wrap;html=1;labelBackgroundColor=none;fillColor=#999999;fontColor=#ffffff;align=center;arcSize=10;strokeColor=#8A8A8A;metaEdit=1;metaData={&quot;c4Type&quot;:{&quot;editable&quot;:false}};points=[[0.25,0,0],[0.5,0,0],[0.75,0,0],[1,0.25,0],[1,0.5,0],[1,0.75,0],[0.75,1,0],[0.5,1,0],[0.25,1,0],[0,0.75,0],[0,0.5,0],[0,0.25,0]];" vertex="1" parent="1">
                        <mxGeometry x="320" y="760" width="200" height="120" as="geometry"/>
                    </mxCell>
                </object>
                <object placeholders="1" c4Name="Система аутентификации и управления пользователями" c4Type="Software System" c4Description="Управление пользовательскими аккаунтами, аутентификацией и авторизацией" label="&lt;b&gt;%c4Name%&lt;/b&gt;&lt;div&gt;[%c4Type%]&lt;/div&gt;&lt;br&gt;&lt;div&gt;%c4Description%&lt;/div&gt;" id="17">
                    <mxCell style="rounded=1;whiteSpace=wrap;html=1;labelBackgroundColor=none;fillColor=#999999;fontColor=#ffffff;align=center;arcSize=10;strokeColor=#8A8A8A;metaEdit=1;metaData={&quot;c4Type&quot;:{&quot;editable&quot;:false}};points=[[0.25,0,0],[0.5,0,0],[0.75,0,0],[1,0.25,0],[1,0.5,0],[1,0.75,0],[0.75,1,0],[0.5,1,0],[0.25,1,0],[0,0.75,0],[0,0.5,0],[0,0.25,0]];" vertex="1" parent="1">
                        <mxGeometry x="-80" y="560" width="200" height="120" as="geometry"/>
                    </mxCell>
                </object>
                <object placeholders="1" c4Name="CRM-система" c4Type="Software System" c4Description="Платформа для управления клиентскими данными, взаимоотношениями с пользователями и поддержки клиентов" label="&lt;b&gt;%c4Name%&lt;/b&gt;&lt;div&gt;[%c4Type%]&lt;/div&gt;&lt;br&gt;&lt;div&gt;%c4Description%&lt;/div&gt;" id="18">
                    <mxCell style="rounded=1;whiteSpace=wrap;html=1;labelBackgroundColor=none;fillColor=#999999;fontColor=#ffffff;align=center;arcSize=10;strokeColor=#8A8A8A;metaEdit=1;metaData={&quot;c4Type&quot;:{&quot;editable&quot;:false}};points=[[0.25,0,0],[0.5,0,0],[0.75,0,0],[1,0.25,0],[1,0.5,0],[1,0.75,0],[0.75,1,0],[0.5,1,0],[0.25,1,0],[0,0.75,0],[0,0.5,0],[0,0.25,0]];" vertex="1" parent="1">
                        <mxGeometry x="720" y="560" width="200" height="120" as="geometry"/>
                    </mxCell>
                </object>
                <object placeholders="1" c4Name="Система группового онлайн-чата" c4Type="Software System" c4Description="Платформа для создания чатов и обмена сообщениями между пользователями" label="&lt;b&gt;%c4Name%&lt;/b&gt;&lt;div&gt;[%c4Type%]&lt;/div&gt;&lt;br&gt;&lt;div&gt;%c4Description%&lt;/div&gt;" id="19">
                    <mxCell style="rounded=1;whiteSpace=wrap;html=1;labelBackgroundColor=none;fillColor=#999999;fontColor=#ffffff;align=center;arcSize=10;strokeColor=#8A8A8A;metaEdit=1;metaData={&quot;c4Type&quot;:{&quot;editable&quot;:false}};points=[[0.25,0,0],[0.5,0,0],[0.75,0,0],[1,0.25,0],[1,0.5,0],[1,0.75,0],[0.75,1,0],[0.5,1,0],[0.25,1,0],[0,0.75,0],[0,0.5,0],[0,0.25,0]];" vertex="1" parent="1">
                        <mxGeometry x="40" y="760" width="200" height="120" as="geometry"/>
                    </mxCell>
                </object>
                <object placeholders="1" c4Name="Система аналитики и мониторинга" c4Type="Software System" c4Description="Собирает данные о пользователях, системе и других метриках, хранит информацию, формирует регулярные отчеты" label="&lt;b&gt;%c4Name%&lt;/b&gt;&lt;div&gt;[%c4Type%]&lt;/div&gt;&lt;br&gt;&lt;div&gt;%c4Description%&lt;/div&gt;" id="20">
                    <mxCell style="rounded=1;whiteSpace=wrap;html=1;labelBackgroundColor=none;fillColor=#999999;fontColor=#ffffff;align=center;arcSize=10;strokeColor=#8A8A8A;metaEdit=1;metaData={&quot;c4Type&quot;:{&quot;editable&quot;:false}};points=[[0.25,0,0],[0.5,0,0],[0.75,0,0],[1,0.25,0],[1,0.5,0],[1,0.75,0],[0.75,1,0],[0.5,1,0],[0.25,1,0],[0,0.75,0],[0,0.5,0],[0,0.25,0]];" vertex="1" parent="1">
                        <mxGeometry x="720" y="400" width="200" height="120" as="geometry"/>
                    </mxCell>
                </object>
                <mxCell id="21" style="edgeStyle=none;rounded=0;orthogonalLoop=1;jettySize=auto;html=1;dashed=1;strokeColor=#707070;strokeWidth=2;fontColor=#707070;entryX=0.5;entryY=0;entryDx=0;entryDy=0;entryPerimeter=0;" edge="1" parent="1" target="4">
                    <mxGeometry relative="1" as="geometry">
                        <mxPoint x="419.5" y="340" as="targetPoint"/>
                        <mxPoint x="419.5" y="190" as="sourcePoint"/>
                    </mxGeometry>
                </mxCell>
                <mxCell id="22" value="Создает сессию выбора" style="edgeLabel;html=1;align=center;verticalAlign=middle;resizable=0;points=[];" connectable="0" vertex="1" parent="21">
                    <mxGeometry x="-0.009" y="-1" relative="1" as="geometry">
                        <mxPoint y="1" as="offset"/>
                    </mxGeometry>
                </mxCell>
                <mxCell id="23" style="edgeStyle=none;rounded=0;orthogonalLoop=1;jettySize=auto;html=1;dashed=1;strokeColor=#707070;strokeWidth=2;fontColor=#707070;entryX=0.5;entryY=0;entryDx=0;entryDy=0;entryPerimeter=0;" edge="1" parent="1" target="16">
                    <mxGeometry relative="1" as="geometry">
                        <mxPoint x="510" y="559" as="targetPoint"/>
                        <mxPoint x="420" y="520" as="sourcePoint"/>
                    </mxGeometry>
                </mxCell>
                <mxCell id="24" value="Запрашивает доступ&lt;div&gt;для запуска воспроизведения&lt;/div&gt;" style="edgeLabel;html=1;align=center;verticalAlign=middle;resizable=0;points=[];" connectable="0" vertex="1" parent="23">
                    <mxGeometry x="0.0093" relative="1" as="geometry">
                        <mxPoint as="offset"/>
                    </mxGeometry>
                </mxCell>
                <mxCell id="25" style="edgeStyle=none;rounded=0;orthogonalLoop=1;jettySize=auto;html=1;dashed=1;strokeColor=#707070;strokeWidth=2;fontColor=#707070;entryX=0.5;entryY=0;entryDx=0;entryDy=0;entryPerimeter=0;exitX=0.2;exitY=1;exitDx=0;exitDy=0;exitPerimeter=0;" edge="1" parent="1" source="4" target="19">
                    <mxGeometry relative="1" as="geometry">
                        <mxPoint x="360.5" y="730" as="targetPoint"/>
                        <mxPoint x="360" y="540" as="sourcePoint"/>
                        <Array as="points">
                            <mxPoint x="360" y="720"/>
                            <mxPoint x="140" y="720"/>
                        </Array>
                    </mxGeometry>
                </mxCell>
                <mxCell id="26" value="Запрашивает доступ к чату" style="edgeLabel;html=1;align=center;verticalAlign=middle;resizable=0;points=[];" connectable="0" vertex="1" parent="25">
                    <mxGeometry x="0.355" y="-1" relative="1" as="geometry">
                        <mxPoint as="offset"/>
                    </mxGeometry>
                </mxCell>
                <mxCell id="27" style="edgeStyle=none;rounded=0;orthogonalLoop=1;jettySize=auto;html=1;dashed=1;strokeColor=#707070;strokeWidth=2;fontColor=#707070;entryX=0.5;entryY=0;entryDx=0;entryDy=0;entryPerimeter=0;exitX=0.8;exitY=1;exitDx=0;exitDy=0;exitPerimeter=0;" edge="1" parent="1" source="4" target="15">
                    <mxGeometry relative="1" as="geometry">
                        <mxPoint x="480" y="760" as="targetPoint"/>
                        <mxPoint x="480" y="560" as="sourcePoint"/>
                        <Array as="points">
                            <mxPoint x="480" y="720"/>
                            <mxPoint x="700" y="720"/>
                        </Array>
                    </mxGeometry>
                </mxCell>
                <mxCell id="28" value="Запрашивает доступ к контенту" style="edgeLabel;html=1;align=center;verticalAlign=middle;resizable=0;points=[];" connectable="0" vertex="1" parent="27">
                    <mxGeometry x="0.3458" y="1" relative="1" as="geometry">
                        <mxPoint as="offset"/>
                    </mxGeometry>
                </mxCell>
                <mxCell id="29" style="edgeStyle=none;rounded=0;orthogonalLoop=1;jettySize=auto;html=1;dashed=1;strokeColor=#707070;strokeWidth=2;fontColor=#707070;entryX=1;entryY=0.5;entryDx=0;entryDy=0;entryPerimeter=0;exitX=0.01;exitY=0.658;exitDx=0;exitDy=0;exitPerimeter=0;" edge="1" parent="1" source="4" target="17">
                    <mxGeometry relative="1" as="geometry">
                        <mxPoint x="220.5" y="600" as="targetPoint"/>
                        <mxPoint x="220" y="390" as="sourcePoint"/>
                        <Array as="points">
                            <mxPoint x="280" y="480"/>
                            <mxPoint x="280" y="620"/>
                        </Array>
                    </mxGeometry>
                </mxCell>
                <mxCell id="30" value="Запрашивает&lt;br&gt;данные об аккаунте" style="edgeLabel;html=1;align=center;verticalAlign=middle;resizable=0;points=[];" connectable="0" vertex="1" parent="29">
                    <mxGeometry x="0.6175" y="2" relative="1" as="geometry">
                        <mxPoint x="80" y="-2" as="offset"/>
                    </mxGeometry>
                </mxCell>
                <mxCell id="31" style="edgeStyle=none;rounded=0;orthogonalLoop=1;jettySize=auto;html=1;dashed=1;strokeColor=#707070;strokeWidth=2;fontColor=#707070;entryX=1;entryY=0.5;entryDx=0;entryDy=0;entryPerimeter=0;exitX=0;exitY=0.5;exitDx=0;exitDy=0;exitPerimeter=0;" edge="1" parent="1" source="4" target="14">
                    <mxGeometry relative="1" as="geometry">
                        <mxPoint x="250.5" y="480" as="targetPoint"/>
                        <mxPoint x="250" y="270" as="sourcePoint"/>
                    </mxGeometry>
                </mxCell>
                <mxCell id="32" value="Передает&lt;br&gt;информацию&lt;br&gt;о статусе мэтча" style="edgeLabel;html=1;align=center;verticalAlign=middle;resizable=0;points=[];" connectable="0" vertex="1" parent="31">
                    <mxGeometry x="-0.0015" y="-1" relative="1" as="geometry">
                        <mxPoint x="-20" y="1" as="offset"/>
                    </mxGeometry>
                </mxCell>
                <mxCell id="33" style="edgeStyle=none;rounded=0;orthogonalLoop=1;jettySize=auto;html=1;dashed=1;strokeColor=#707070;strokeWidth=2;fontColor=#707070;entryX=1;entryY=0.5;entryDx=0;entryDy=0;entryPerimeter=0;exitX=-0.015;exitY=0.342;exitDx=0;exitDy=0;exitPerimeter=0;" edge="1" parent="1" source="4" target="3">
                    <mxGeometry relative="1" as="geometry">
                        <mxPoint x="230.5" y="420" as="targetPoint"/>
                        <mxPoint x="230" y="210" as="sourcePoint"/>
                        <Array as="points">
                            <mxPoint x="280" y="440"/>
                            <mxPoint x="280" y="300"/>
                        </Array>
                    </mxGeometry>
                </mxCell>
                <mxCell id="34" value="Запрашивает обработку&amp;nbsp;&lt;div&gt;платежа&lt;/div&gt;" style="edgeLabel;html=1;align=center;verticalAlign=middle;resizable=0;points=[];" connectable="0" vertex="1" parent="33">
                    <mxGeometry x="-0.275" relative="1" as="geometry">
                        <mxPoint x="-26" y="-55" as="offset"/>
                    </mxGeometry>
                </mxCell>
                <mxCell id="35" style="edgeStyle=none;rounded=0;orthogonalLoop=1;jettySize=auto;html=1;dashed=1;strokeColor=#707070;strokeWidth=2;fontColor=#707070;entryX=0;entryY=0.5;entryDx=0;entryDy=0;entryPerimeter=0;exitX=1;exitY=0.5;exitDx=0;exitDy=0;exitPerimeter=0;" edge="1" parent="1" source="4" target="20">
                    <mxGeometry relative="1" as="geometry">
                        <mxPoint x="550.5" y="670" as="targetPoint"/>
                        <mxPoint x="550" y="460" as="sourcePoint"/>
                    </mxGeometry>
                </mxCell>
                <mxCell id="36" value="Передает&lt;br&gt;информацию&lt;div&gt;о предпочтениях&lt;/div&gt;" style="edgeLabel;html=1;align=center;verticalAlign=middle;resizable=0;points=[];" connectable="0" vertex="1" parent="35">
                    <mxGeometry x="-0.0279" y="1" relative="1" as="geometry">
                        <mxPoint x="18" y="1" as="offset"/>
                    </mxGeometry>
                </mxCell>
                <mxCell id="37" style="edgeStyle=none;rounded=0;orthogonalLoop=1;jettySize=auto;html=1;dashed=1;strokeColor=#707070;strokeWidth=2;fontColor=#707070;entryX=0;entryY=0.5;entryDx=0;entryDy=0;entryPerimeter=0;exitX=1.02;exitY=0.333;exitDx=0;exitDy=0;exitPerimeter=0;" edge="1" parent="1" source="4" target="5">
                    <mxGeometry relative="1" as="geometry">
                        <mxPoint x="600.5" y="610" as="targetPoint"/>
                        <mxPoint x="600" y="400" as="sourcePoint"/>
                        <Array as="points">
                            <mxPoint x="560" y="440"/>
                            <mxPoint x="560" y="300"/>
                        </Array>
                    </mxGeometry>
                </mxCell>
                <mxCell id="38" value="Передает информацию&lt;div&gt;об ошибках&amp;nbsp;&lt;/div&gt;" style="edgeLabel;html=1;align=center;verticalAlign=middle;resizable=0;points=[];" connectable="0" vertex="1" parent="37">
                    <mxGeometry x="-0.2794" y="-1" relative="1" as="geometry">
                        <mxPoint x="21" y="-55" as="offset"/>
                    </mxGeometry>
                </mxCell>
                <mxCell id="39" style="edgeStyle=none;rounded=0;orthogonalLoop=1;jettySize=auto;html=1;dashed=1;strokeColor=#707070;strokeWidth=2;fontColor=#707070;entryX=0;entryY=0.5;entryDx=0;entryDy=0;entryPerimeter=0;exitX=1.01;exitY=0.675;exitDx=0;exitDy=0;exitPerimeter=0;" edge="1" parent="1" source="4" target="18">
                    <mxGeometry relative="1" as="geometry">
                        <mxPoint x="590.5" y="680" as="targetPoint"/>
                        <mxPoint x="590" y="470" as="sourcePoint"/>
                        <Array as="points">
                            <mxPoint x="560" y="481"/>
                            <mxPoint x="560" y="620"/>
                        </Array>
                    </mxGeometry>
                </mxCell>
                <mxCell id="40" value="Выгружает&amp;nbsp;&lt;div&gt;персональные&amp;nbsp;&lt;/div&gt;&lt;div&gt;данные&lt;/div&gt;" style="edgeLabel;html=1;align=center;verticalAlign=middle;resizable=0;points=[];" connectable="0" vertex="1" parent="39">
                    <mxGeometry x="-0.2759" y="1" relative="1" as="geometry">
                        <mxPoint x="21" y="55" as="offset"/>
                    </mxGeometry>
                </mxCell>
            </root>
        </mxGraphModel>
    </diagram>
    <diagram name="C4 Container" id="m8YwtpOqiCS0dB1lspsB">
        <mxGraphModel dx="1573" dy="207" grid="1" gridSize="10" guides="1" tooltips="1" connect="1" arrows="1" fold="1" page="1" pageScale="1" pageWidth="827" pageHeight="1169" math="0" shadow="0">
            <root>
                <mxCell id="6M9tTkYtrs8H_QPtwX7E-0"/>
                <mxCell id="6M9tTkYtrs8H_QPtwX7E-1" parent="6M9tTkYtrs8H_QPtwX7E-0"/>
                <mxCell id="fvyqv4AmcOP5PmUK73PX-0" value="" style="group" parent="6M9tTkYtrs8H_QPtwX7E-1" vertex="1" connectable="0">
                    <mxGeometry x="-50" y="2110" width="696" height="220" as="geometry"/>
                </mxCell>
                <mxCell id="fvyqv4AmcOP5PmUK73PX-1" value="" style="rounded=1;whiteSpace=wrap;html=1;fillColor=none;strokeColor=#666666;dashed=1;dashPattern=1 2;fontColor=#666666;" parent="fvyqv4AmcOP5PmUK73PX-0" vertex="1">
                    <mxGeometry width="696" height="220" as="geometry"/>
                </mxCell>
                <mxCell id="fvyqv4AmcOP5PmUK73PX-2" value="Legend" style="text;html=1;strokeColor=none;fillColor=none;align=center;verticalAlign=middle;whiteSpace=wrap;rounded=0;fontStyle=1;fontColor=#666666;" parent="fvyqv4AmcOP5PmUK73PX-0" vertex="1">
                    <mxGeometry x="19" y="10" width="40" height="20" as="geometry"/>
                </mxCell>
                <object placeholders="1" c4Name="name" c4Type="Person" c4Description="Description" label="&lt;b style=&quot;font-size: 9px;&quot;&gt;%c4Name%&lt;/b&gt;&lt;div style=&quot;font-size: 9px;&quot;&gt;[%c4Type%]&lt;/div&gt;&lt;br style=&quot;font-size: 9px;&quot;&gt;&lt;div style=&quot;font-size: 9px;&quot;&gt;%c4Description%&lt;/div&gt;" id="fvyqv4AmcOP5PmUK73PX-3">
                    <mxCell style="html=1;dashed=0;whitespace=wrap;fillColor=#08427b;strokeColor=none;fontColor=#ffffff;shape=mxgraph.c4.person;align=center;metaEdit=1;points=[[0.5,0,0],[1,0.5,0],[1,0.75,0],[0.75,1,0],[0.5,1,0],[0.25,1,0],[0,0.75,0],[0,0.5,0]];metaData={&quot;c4Type&quot;:{&quot;editable&quot;:false}};fontSize=9;" parent="fvyqv4AmcOP5PmUK73PX-0" vertex="1">
                        <mxGeometry x="19" y="35" width="60" height="80" as="geometry"/>
                    </mxCell>
                </object>
                <object placeholders="1" c4Name="name" c4Type="Software System" c4Description="Description" label="&lt;b style=&quot;font-size: 9px;&quot;&gt;%c4Name%&lt;/b&gt;&lt;div style=&quot;font-size: 9px;&quot;&gt;[%c4Type%]&lt;/div&gt;&lt;br style=&quot;font-size: 9px;&quot;&gt;&lt;div style=&quot;font-size: 9px;&quot;&gt;%c4Description%&lt;/div&gt;" id="fvyqv4AmcOP5PmUK73PX-4">
                    <mxCell style="rounded=1;whiteSpace=wrap;html=1;labelBackgroundColor=none;fillColor=#1168BD;fontColor=#ffffff;align=center;arcSize=10;strokeColor=#1168BD;metaEdit=1;metaData={&quot;c4Type&quot;:{&quot;editable&quot;:false}};points=[[0.25,0,0],[0.5,0,0],[0.75,0,0],[1,0.25,0],[1,0.5,0],[1,0.75,0],[0.75,1,0],[0.5,1,0],[0.25,1,0],[0,0.75,0],[0,0.5,0],[0,0.25,0]];fontSize=9;" parent="fvyqv4AmcOP5PmUK73PX-0" vertex="1">
                        <mxGeometry x="98" y="42.5" width="90" height="65" as="geometry"/>
                    </mxCell>
                </object>
                <object placeholders="1" c4Name="name" c4Type="Software System" c4Description="Description" label="&lt;b style=&quot;font-size: 9px;&quot;&gt;%c4Name%&lt;/b&gt;&lt;div style=&quot;font-size: 9px;&quot;&gt;[%c4Type%]&lt;/div&gt;&lt;br style=&quot;font-size: 9px;&quot;&gt;&lt;div style=&quot;font-size: 9px;&quot;&gt;%c4Description%&lt;/div&gt;" id="fvyqv4AmcOP5PmUK73PX-5">
                    <mxCell style="rounded=1;whiteSpace=wrap;html=1;labelBackgroundColor=none;fillColor=#999999;fontColor=#ffffff;align=center;arcSize=10;strokeColor=#8A8A8A;metaEdit=1;metaData={&quot;c4Type&quot;:{&quot;editable&quot;:false}};points=[[0.25,0,0],[0.5,0,0],[0.75,0,0],[1,0.25,0],[1,0.5,0],[1,0.75,0],[0.75,1,0],[0.5,1,0],[0.25,1,0],[0,0.75,0],[0,0.5,0],[0,0.25,0]];fontSize=9;" parent="fvyqv4AmcOP5PmUK73PX-0" vertex="1">
                        <mxGeometry x="203.5" y="42.5" width="90" height="65" as="geometry"/>
                    </mxCell>
                </object>
                <object placeholders="1" c4Name="name" c4Type="Component" c4Technology="technology" c4Description="Description" label="&lt;b style=&quot;font-size: 9px;&quot;&gt;%c4Name%&lt;/b&gt;&lt;div style=&quot;font-size: 9px;&quot;&gt;[%c4Type%: %c4Technology%]&lt;/div&gt;&lt;br style=&quot;font-size: 9px;&quot;&gt;&lt;div style=&quot;font-size: 9px;&quot;&gt;%c4Description%&lt;/div&gt;" id="fvyqv4AmcOP5PmUK73PX-6">
                    <mxCell style="rounded=1;whiteSpace=wrap;html=1;labelBackgroundColor=none;fillColor=#85BBF0;fontColor=#ffffff;align=center;arcSize=10;strokeColor=#78A8D8;metaEdit=1;metaData={&quot;c4Type&quot;:{&quot;editable&quot;:false}};points=[[0.25,0,0],[0.5,0,0],[0.75,0,0],[1,0.25,0],[1,0.5,0],[1,0.75,0],[0.75,1,0],[0.5,1,0],[0.25,1,0],[0,0.75,0],[0,0.5,0],[0,0.25,0]];fontSize=9;" parent="fvyqv4AmcOP5PmUK73PX-0" vertex="1">
                        <mxGeometry x="426" y="42.5" width="90" height="65" as="geometry"/>
                    </mxCell>
                </object>
                <object placeholders="1" c4Name="name" c4Type="Container" c4Technology="technology" c4Description="Description" label="&lt;b style=&quot;font-size: 9px;&quot;&gt;%c4Name%&lt;/b&gt;&lt;div style=&quot;font-size: 9px;&quot;&gt;[%c4Type%: %c4Technology%]&lt;/div&gt;&lt;br style=&quot;font-size: 9px;&quot;&gt;&lt;div style=&quot;font-size: 9px;&quot;&gt;%c4Description%&lt;/div&gt;" id="fvyqv4AmcOP5PmUK73PX-7">
                    <mxCell style="rounded=1;whiteSpace=wrap;html=1;labelBackgroundColor=none;fillColor=#438DD5;fontColor=#ffffff;align=center;arcSize=10;strokeColor=#3C7FC0;metaEdit=1;metaData={&quot;c4Type&quot;:{&quot;editable&quot;:false}};points=[[0.25,0,0],[0.5,0,0],[0.75,0,0],[1,0.25,0],[1,0.5,0],[1,0.75,0],[0.75,1,0],[0.5,1,0],[0.25,1,0],[0,0.75,0],[0,0.5,0],[0,0.25,0]];fontSize=9;" parent="fvyqv4AmcOP5PmUK73PX-0" vertex="1">
                        <mxGeometry x="314.5" y="42.5" width="90" height="65" as="geometry"/>
                    </mxCell>
                </object>
                <object placeholders="1" c4Name="name" c4Type="ExecutionEnvironment" c4Application="applicationAndVersion" label="&lt;div style=&quot;text-align: left; font-size: 9px;&quot;&gt;%c4Name%&lt;/div&gt;&lt;div style=&quot;text-align: left; font-size: 9px;&quot;&gt;[%c4Application%]&lt;/div&gt;" id="fvyqv4AmcOP5PmUK73PX-8">
                    <mxCell style="rounded=1;whiteSpace=wrap;html=1;labelBackgroundColor=none;fillColor=#ffffff;fontColor=#000000;align=left;arcSize=5;strokeColor=#000000;verticalAlign=bottom;metaEdit=1;metaData={&quot;c4Type&quot;:{&quot;editable&quot;:false}};points=[[0.25,0,0],[0.5,0,0],[0.75,0,0],[1,0.25,0],[1,0.5,0],[1,0.75,0],[0.75,1,0],[0.5,1,0],[0.25,1,0],[0,0.75,0],[0,0.5,0],[0,0.25,0]];fontSize=9;" parent="fvyqv4AmcOP5PmUK73PX-0" vertex="1">
                        <mxGeometry x="59" y="130" width="141" height="60" as="geometry"/>
                    </mxCell>
                </object>
                <object placeholders="1" c4Name="hostname" c4Type="DeploymentNode" c4OperationSystem="operationSystem" c4ScalingFactor="" label="&lt;div style=&quot;text-align: left; font-size: 9px;&quot;&gt;%c4Name%&lt;/div&gt;&lt;div style=&quot;text-align: left; font-size: 9px;&quot;&gt;[%c4OperationSystem%]&lt;/div&gt;&lt;div style=&quot;text-align: right; font-size: 9px;&quot;&gt;%c4ScalingFactor%&lt;/div&gt;" id="fvyqv4AmcOP5PmUK73PX-9">
                    <mxCell style="rounded=1;whiteSpace=wrap;html=1;labelBackgroundColor=none;fillColor=#ffffff;fontColor=#000000;align=left;arcSize=5;strokeColor=#000000;verticalAlign=bottom;metaEdit=1;metaData={&quot;c4Type&quot;:{&quot;editable&quot;:false}};points=[[0.25,0,0],[0.5,0,0],[0.75,0,0],[1,0.25,0],[1,0.5,0],[1,0.75,0],[0.75,1,0],[0.5,1,0],[0.25,1,0],[0,0.75,0],[0,0.5,0],[0,0.25,0]];fontSize=9;" parent="fvyqv4AmcOP5PmUK73PX-0" vertex="1">
                        <mxGeometry x="220" y="130" width="140" height="60" as="geometry"/>
                    </mxCell>
                </object>
                <object placeholders="1" c4Type="Database" c4Technology="Technology" c4Description="Description" label="%c4Type%&lt;div style=&quot;font-size: 9px;&quot;&gt;[Container:&amp;nbsp;%c4Technology%]&lt;/div&gt;&lt;br style=&quot;font-size: 9px;&quot;&gt;&lt;div style=&quot;font-size: 9px;&quot;&gt;%c4Description%&lt;/div&gt;" id="fvyqv4AmcOP5PmUK73PX-10">
                    <mxCell style="shape=cylinder;whiteSpace=wrap;html=1;boundedLbl=1;rounded=0;labelBackgroundColor=none;fillColor=#438DD5;fontSize=9;fontColor=#ffffff;align=center;strokeColor=#3C7FC0;metaEdit=1;points=[[0.5,0,0],[1,0.25,0],[1,0.5,0],[1,0.75,0],[0.5,1,0],[0,0.75,0],[0,0.5,0],[0,0.25,0]];metaData={&quot;c4Type&quot;:{&quot;editable&quot;:false}};" parent="fvyqv4AmcOP5PmUK73PX-0" vertex="1">
                        <mxGeometry x="380" y="130" width="90" height="70" as="geometry"/>
                    </mxCell>
                </object>
                <object placeholders="1" c4Type="Database" c4Technology="Technology" c4Description="External" label="%c4Type%&lt;div style=&quot;font-size: 9px;&quot;&gt;[Container:&amp;nbsp;%c4Technology%]&lt;/div&gt;&lt;br style=&quot;font-size: 9px;&quot;&gt;&lt;div style=&quot;font-size: 9px;&quot;&gt;%c4Description%&lt;/div&gt;" id="fvyqv4AmcOP5PmUK73PX-11">
                    <mxCell style="shape=cylinder;whiteSpace=wrap;html=1;boundedLbl=1;rounded=1;labelBackgroundColor=none;fillColor=#999999;fontSize=9;fontColor=#ffffff;align=center;strokeColor=#8A8A8A;metaEdit=1;points=[[0.5,0,0],[1,0.25,0],[1,0.5,0],[1,0.75,0],[0.5,1,0],[0,0.75,0],[0,0.5,0],[0,0.25,0]];metaData={&quot;c4Type&quot;:{&quot;editable&quot;:false}};arcSize=10;" parent="fvyqv4AmcOP5PmUK73PX-0" vertex="1">
                        <mxGeometry x="480" y="130" width="90" height="70" as="geometry"/>
                    </mxCell>
                </object>
                <object placeholders="1" c4Type="Relationship" c4Technology="technology" c4Description="Relationship" label="&lt;div style=&quot;text-align: left; font-size: 9px;&quot;&gt;&lt;div style=&quot;text-align: center; font-size: 9px;&quot;&gt;&lt;b style=&quot;font-size: 9px;&quot;&gt;%c4Description%&lt;/b&gt;&lt;/div&gt;&lt;div style=&quot;text-align: center; font-size: 9px;&quot;&gt;[%c4Technology%]&lt;/div&gt;&lt;/div&gt;" id="fvyqv4AmcOP5PmUK73PX-12">
                    <mxCell style="edgeStyle=none;rounded=0;html=1;jettySize=auto;orthogonalLoop=1;strokeColor=#707070;strokeWidth=2;fontColor=#707070;jumpStyle=none;dashed=1;metaEdit=1;metaData={&quot;c4Type&quot;:{&quot;editable&quot;:false}};fontSize=9;" parent="fvyqv4AmcOP5PmUK73PX-0" edge="1">
                        <mxGeometry width="160" relative="1" as="geometry">
                            <mxPoint x="536" y="74.5" as="sourcePoint"/>
                            <mxPoint x="676" y="74.5" as="targetPoint"/>
                        </mxGeometry>
                    </mxCell>
                </object>
                <object placeholders="1" c4Name="Пользователь" c4Type="Person" c4Description="Выбирает фильмы и &#10;приглашает других &#10;для совместного&#10;просмотра" label="&lt;b&gt;%c4Name%&lt;/b&gt;&lt;div&gt;[%c4Type%]&lt;/div&gt;&lt;br&gt;&lt;div&gt;%c4Description%&lt;/div&gt;" id="TIPBfkECAkFiBOAwYd2I-0">
                    <mxCell style="html=1;dashed=0;whitespace=wrap;fillColor=#08427b;strokeColor=none;fontColor=#ffffff;shape=mxgraph.c4.person;align=center;metaEdit=1;points=[[0.5,0,0],[1,0.5,0],[1,0.75,0],[0.75,1,0],[0.5,1,0],[0.25,1,0],[0,0.75,0],[0,0.5,0]];metaData={&quot;c4Type&quot;:{&quot;editable&quot;:false}};" parent="6M9tTkYtrs8H_QPtwX7E-1" vertex="1">
                        <mxGeometry x="220" y="690" width="160" height="150" as="geometry"/>
                    </mxCell>
                </object>
                <object placeholders="1" c4Name="Платежная система" c4Type="Software System" c4Description="Обеспечивает обработку платежей для управления сервисом подписки" label="&lt;b&gt;%c4Name%&lt;/b&gt;&lt;div&gt;[%c4Type%]&lt;/div&gt;&lt;br&gt;&lt;div&gt;%c4Description%&lt;/div&gt;" id="TIPBfkECAkFiBOAwYd2I-1">
                    <mxCell style="rounded=1;whiteSpace=wrap;html=1;labelBackgroundColor=none;fillColor=#999999;fontColor=#ffffff;align=center;arcSize=10;strokeColor=#8A8A8A;metaEdit=1;metaData={&quot;c4Type&quot;:{&quot;editable&quot;:false}};points=[[0.25,0,0],[0.5,0,0],[0.75,0,0],[1,0.25,0],[1,0.5,0],[1,0.75,0],[0.75,1,0],[0.5,1,0],[0.25,1,0],[0,0.75,0],[0,0.5,0],[0,0.25,0]];" parent="6M9tTkYtrs8H_QPtwX7E-1" vertex="1">
                        <mxGeometry x="840" y="1920" width="200" height="120" as="geometry"/>
                    </mxCell>
                </object>
                <object placeholders="1" c4Name="Система поддержки пользователей" c4Type="Software System" c4Description="Взаимодействует с клиентами" label="&lt;b&gt;%c4Name%&lt;/b&gt;&lt;div&gt;[%c4Type%]&lt;/div&gt;&lt;br&gt;&lt;div&gt;%c4Description%&lt;/div&gt;" id="TIPBfkECAkFiBOAwYd2I-3">
                    <mxCell style="rounded=1;whiteSpace=wrap;html=1;labelBackgroundColor=none;fillColor=#999999;fontColor=#ffffff;align=center;arcSize=10;strokeColor=#8A8A8A;metaEdit=1;metaData={&quot;c4Type&quot;:{&quot;editable&quot;:false}};points=[[0.25,0,0],[0.5,0,0],[0.75,0,0],[1,0.25,0],[1,0.5,0],[1,0.75,0],[0.75,1,0],[0.5,1,0],[0.25,1,0],[0,0.75,0],[0,0.5,0],[0,0.25,0]];" parent="6M9tTkYtrs8H_QPtwX7E-1" vertex="1">
                        <mxGeometry x="-613" y="1100" width="200" height="120" as="geometry"/>
                    </mxCell>
                </object>
                <object placeholders="1" c4Name="Система уведомлений" c4Type="Software System" c4Description="Отправляет уведомления пользователям о статусе мэтча, рекомендованных подборках, изменениях в системе и прочее" label="&lt;b&gt;%c4Name%&lt;/b&gt;&lt;div&gt;[%c4Type%]&lt;/div&gt;&lt;br&gt;&lt;div&gt;%c4Description%&lt;/div&gt;" id="TIPBfkECAkFiBOAwYd2I-4">
                    <mxCell style="rounded=1;whiteSpace=wrap;html=1;labelBackgroundColor=none;fillColor=#999999;fontColor=#ffffff;align=center;arcSize=10;strokeColor=#8A8A8A;metaEdit=1;metaData={&quot;c4Type&quot;:{&quot;editable&quot;:false}};points=[[0.25,0,0],[0.5,0,0],[0.75,0,0],[1,0.25,0],[1,0.5,0],[1,0.75,0],[0.75,1,0],[0.5,1,0],[0.25,1,0],[0,0.75,0],[0,0.5,0],[0,0.25,0]];" parent="6M9tTkYtrs8H_QPtwX7E-1" vertex="1">
                        <mxGeometry x="-613" y="940" width="200" height="120" as="geometry"/>
                    </mxCell>
                </object>
                <object placeholders="1" c4Name="Система каталога подборок и рекомендаций контента" c4Type="Software System" c4Description="Платформа рекомендаций фильмов для подборки персонализированного контента" label="&lt;b&gt;%c4Name%&lt;/b&gt;&lt;div&gt;[%c4Type%]&lt;/div&gt;&lt;br&gt;&lt;div&gt;%c4Description%&lt;/div&gt;" id="TIPBfkECAkFiBOAwYd2I-5">
                    <mxCell style="rounded=1;whiteSpace=wrap;html=1;labelBackgroundColor=none;fillColor=#999999;fontColor=#ffffff;align=center;arcSize=10;strokeColor=#8A8A8A;metaEdit=1;metaData={&quot;c4Type&quot;:{&quot;editable&quot;:false}};points=[[0.25,0,0],[0.5,0,0],[0.75,0,0],[1,0.25,0],[1,0.5,0],[1,0.75,0],[0.75,1,0],[0.5,1,0],[0.25,1,0],[0,0.75,0],[0,0.5,0],[0,0.25,0]];" parent="6M9tTkYtrs8H_QPtwX7E-1" vertex="1">
                        <mxGeometry x="-613" y="1580" width="200" height="120" as="geometry"/>
                    </mxCell>
                </object>
                <object placeholders="1" c4Name="Система воспроизведения контента" c4Type="Software System" c4Description="Платформа для хранения, обработки и потоковой передачи видео." label="&lt;b&gt;%c4Name%&lt;/b&gt;&lt;div&gt;[%c4Type%]&lt;/div&gt;&lt;br&gt;&lt;div&gt;%c4Description%&lt;/div&gt;" id="TIPBfkECAkFiBOAwYd2I-6">
                    <mxCell style="rounded=1;whiteSpace=wrap;html=1;labelBackgroundColor=none;fillColor=#999999;fontColor=#ffffff;align=center;arcSize=10;strokeColor=#8A8A8A;metaEdit=1;metaData={&quot;c4Type&quot;:{&quot;editable&quot;:false}};points=[[0.25,0,0],[0.5,0,0],[0.75,0,0],[1,0.25,0],[1,0.5,0],[1,0.75,0],[0.75,1,0],[0.5,1,0],[0.25,1,0],[0,0.75,0],[0,0.5,0],[0,0.25,0]];" parent="6M9tTkYtrs8H_QPtwX7E-1" vertex="1">
                        <mxGeometry x="-613" y="1740" width="200" height="120" as="geometry"/>
                    </mxCell>
                </object>
                <object placeholders="1" c4Name="Система аутентификации и управления пользователями" c4Type="Software System" c4Description="Управление пользовательскими аккаунтами, аутентификацией и авторизацией" label="&lt;b&gt;%c4Name%&lt;/b&gt;&lt;div&gt;[%c4Type%]&lt;/div&gt;&lt;br&gt;&lt;div&gt;%c4Description%&lt;/div&gt;" id="TIPBfkECAkFiBOAwYd2I-7">
                    <mxCell style="rounded=1;whiteSpace=wrap;html=1;labelBackgroundColor=none;fillColor=#999999;fontColor=#ffffff;align=center;arcSize=10;strokeColor=#8A8A8A;metaEdit=1;metaData={&quot;c4Type&quot;:{&quot;editable&quot;:false}};points=[[0.25,0,0],[0.5,0,0],[0.75,0,0],[1,0.25,0],[1,0.5,0],[1,0.75,0],[0.75,1,0],[0.5,1,0],[0.25,1,0],[0,0.75,0],[0,0.5,0],[0,0.25,0]];" parent="6M9tTkYtrs8H_QPtwX7E-1" vertex="1">
                        <mxGeometry x="840" y="1120" width="200" height="120" as="geometry"/>
                    </mxCell>
                </object>
                <object placeholders="1" c4Name="CRM-система" c4Type="Software System" c4Description="Платформа для управления клиентскими данными, взаимоотношениями с пользователями и поддержки клиентов" label="&lt;b&gt;%c4Name%&lt;/b&gt;&lt;div&gt;[%c4Type%]&lt;/div&gt;&lt;br&gt;&lt;div&gt;%c4Description%&lt;/div&gt;" id="TIPBfkECAkFiBOAwYd2I-8">
                    <mxCell style="rounded=1;whiteSpace=wrap;html=1;labelBackgroundColor=none;fillColor=#999999;fontColor=#ffffff;align=center;arcSize=10;strokeColor=#8A8A8A;metaEdit=1;metaData={&quot;c4Type&quot;:{&quot;editable&quot;:false}};points=[[0.25,0,0],[0.5,0,0],[0.75,0,0],[1,0.25,0],[1,0.5,0],[1,0.75,0],[0.75,1,0],[0.5,1,0],[0.25,1,0],[0,0.75,0],[0,0.5,0],[0,0.25,0]];" parent="6M9tTkYtrs8H_QPtwX7E-1" vertex="1">
                        <mxGeometry x="-613" y="1420" width="200" height="120" as="geometry"/>
                    </mxCell>
                </object>
                <object placeholders="1" c4Name="Система группового онлайн-чата" c4Type="Software System" c4Description="Платформа для создания чатов и обмена сообщениями между пользователями" label="&lt;b&gt;%c4Name%&lt;/b&gt;&lt;div&gt;[%c4Type%]&lt;/div&gt;&lt;br&gt;&lt;div&gt;%c4Description%&lt;/div&gt;" id="TIPBfkECAkFiBOAwYd2I-9">
                    <mxCell style="rounded=1;whiteSpace=wrap;html=1;labelBackgroundColor=none;fillColor=#999999;fontColor=#ffffff;align=center;arcSize=10;strokeColor=#8A8A8A;metaEdit=1;metaData={&quot;c4Type&quot;:{&quot;editable&quot;:false}};points=[[0.25,0,0],[0.5,0,0],[0.75,0,0],[1,0.25,0],[1,0.5,0],[1,0.75,0],[0.75,1,0],[0.5,1,0],[0.25,1,0],[0,0.75,0],[0,0.5,0],[0,0.25,0]];" parent="6M9tTkYtrs8H_QPtwX7E-1" vertex="1">
                        <mxGeometry x="-613" y="1900" width="200" height="120" as="geometry"/>
                    </mxCell>
                </object>
                <object placeholders="1" c4Name="Система аналитики и мониторинга" c4Type="Software System" c4Description="Собирает данные о пользователях, системе и других метриках, хранит информацию, формирует регулярные отчеты" label="&lt;b&gt;%c4Name%&lt;/b&gt;&lt;div&gt;[%c4Type%]&lt;/div&gt;&lt;br&gt;&lt;div&gt;%c4Description%&lt;/div&gt;" id="TIPBfkECAkFiBOAwYd2I-10">
                    <mxCell style="rounded=1;whiteSpace=wrap;html=1;labelBackgroundColor=none;fillColor=#999999;fontColor=#ffffff;align=center;arcSize=10;strokeColor=#8A8A8A;metaEdit=1;metaData={&quot;c4Type&quot;:{&quot;editable&quot;:false}};points=[[0.25,0,0],[0.5,0,0],[0.75,0,0],[1,0.25,0],[1,0.5,0],[1,0.75,0],[0.75,1,0],[0.5,1,0],[0.25,1,0],[0,0.75,0],[0,0.5,0],[0,0.25,0]];" parent="6M9tTkYtrs8H_QPtwX7E-1" vertex="1">
                        <mxGeometry x="-613" y="1260" width="200" height="120" as="geometry"/>
                    </mxCell>
                </object>
                <mxCell id="6HpoelZD_LiTaXzR5Wjn-20" value="" style="edgeStyle=orthogonalEdgeStyle;rounded=0;orthogonalLoop=1;jettySize=auto;html=1;" parent="6M9tTkYtrs8H_QPtwX7E-1" source="TIPBfkECAkFiBOAwYd2I-32" target="TIPBfkECAkFiBOAwYd2I-0" edge="1">
                    <mxGeometry relative="1" as="geometry"/>
                </mxCell>
                <object placeholders="1" c4Name="Система мэтчинга фильмов" c4Type="ExecutionEnvironment" c4Application="Container" label="&lt;div style=&quot;text-align: left; font-size: 12px;&quot;&gt;%c4Name%&lt;/div&gt;&lt;div style=&quot;text-align: left; font-size: 12px;&quot;&gt;[%c4Application%]&lt;/div&gt;" id="TIPBfkECAkFiBOAwYd2I-32">
                    <mxCell style="rounded=1;whiteSpace=wrap;html=1;labelBackgroundColor=none;fillColor=#ffffff;fontColor=#000000;align=left;arcSize=5;strokeColor=#000000;verticalAlign=bottom;metaEdit=1;metaData={&quot;c4Type&quot;:{&quot;editable&quot;:false}};points=[[0.25,0,0],[0.5,0,0],[0.75,0,0],[1,0.25,0],[1,0.5,0],[1,0.75,0],[0.75,1,0],[0.5,1,0],[0.25,1,0],[0,0.75,0],[0,0.5,0],[0,0.25,0]];fontSize=12;fontStyle=0" parent="6M9tTkYtrs8H_QPtwX7E-1" vertex="1">
                        <mxGeometry x="-160" y="890" width="920" height="1180" as="geometry"/>
                    </mxCell>
                </object>
                <object placeholders="1" c4Name="Мобильное приложение" c4Type="Container" c4Technology="Swift" c4Description="Предоставляет пользователям доступ к выбору и просмотру фильмов и сериалов" label="&lt;b&gt;%c4Name%&lt;/b&gt;&lt;div&gt;[%c4Type%: %c4Technology%]&lt;/div&gt;&lt;br&gt;&lt;div&gt;%c4Description%&lt;/div&gt;" id="I1NneJb7lL_V8w7zGU2I-0">
                    <mxCell style="rounded=1;whiteSpace=wrap;html=1;labelBackgroundColor=none;fillColor=#438DD5;fontColor=#ffffff;align=center;arcSize=10;strokeColor=#3C7FC0;metaEdit=1;metaData={&quot;c4Type&quot;:{&quot;editable&quot;:false}};points=[[0.25,0,0],[0.5,0,0],[0.75,0,0],[1,0.25,0],[1,0.5,0],[1,0.75,0],[0.75,1,0],[0.5,1,0],[0.25,1,0],[0,0.75,0],[0,0.5,0],[0,0.25,0]];" parent="6M9tTkYtrs8H_QPtwX7E-1" vertex="1">
                        <mxGeometry x="520" y="920" width="200" height="120" as="geometry"/>
                    </mxCell>
                </object>
                <object placeholders="1" c4Name="Балансировщик соединений" c4Type="Container" c4Technology="NginX" c4Description="Производит балансировку нагрузки" label="&lt;b&gt;%c4Name%&lt;/b&gt;&lt;div&gt;[%c4Type%: %c4Technology%]&lt;/div&gt;&lt;br&gt;&lt;div&gt;%c4Description%&lt;/div&gt;" id="I1NneJb7lL_V8w7zGU2I-1">
                    <mxCell style="rounded=1;whiteSpace=wrap;html=1;labelBackgroundColor=none;fillColor=#438DD5;fontColor=#ffffff;align=center;arcSize=10;strokeColor=#3C7FC0;metaEdit=1;metaData={&quot;c4Type&quot;:{&quot;editable&quot;:false}};points=[[0.25,0,0],[0.5,0,0],[0.75,0,0],[1,0.25,0],[1,0.5,0],[1,0.75,0],[0.75,1,0],[0.5,1,0],[0.25,1,0],[0,0.75,0],[0,0.5,0],[0,0.25,0]];" parent="6M9tTkYtrs8H_QPtwX7E-1" vertex="1">
                        <mxGeometry x="200" y="1120" width="200" height="120" as="geometry"/>
                    </mxCell>
                </object>
                <object placeholders="1" c4Name="Сервис авторизации" c4Type="Container" c4Technology="Java, SpringBoof" c4Description="Производит авторизацию и аутентификацию пользователей" label="&lt;b&gt;%c4Name%&lt;/b&gt;&lt;div&gt;[%c4Type%: %c4Technology%]&lt;/div&gt;&lt;br&gt;&lt;div&gt;%c4Description%&lt;/div&gt;" id="I1NneJb7lL_V8w7zGU2I-2">
                    <mxCell style="rounded=1;whiteSpace=wrap;html=1;labelBackgroundColor=none;fillColor=#438DD5;fontColor=#ffffff;align=center;arcSize=10;strokeColor=#3C7FC0;metaEdit=1;metaData={&quot;c4Type&quot;:{&quot;editable&quot;:false}};points=[[0.25,0,0],[0.5,0,0],[0.75,0,0],[1,0.25,0],[1,0.5,0],[1,0.75,0],[0.75,1,0],[0.5,1,0],[0.25,1,0],[0,0.75,0],[0,0.5,0],[0,0.25,0]];" parent="6M9tTkYtrs8H_QPtwX7E-1" vertex="1">
                        <mxGeometry x="520" y="1120" width="200" height="120" as="geometry"/>
                    </mxCell>
                </object>
                <object placeholders="1" c4Name="Сервис API" c4Type="Container" c4Technology="Java, SpringBoof" c4Description="Обеспечивает взаимодействие с внешними системами" label="&lt;b&gt;%c4Name%&lt;/b&gt;&lt;div&gt;[%c4Type%: %c4Technology%]&lt;/div&gt;&lt;br&gt;&lt;div&gt;%c4Description%&lt;/div&gt;" id="I1NneJb7lL_V8w7zGU2I-3">
                    <mxCell style="rounded=1;whiteSpace=wrap;html=1;labelBackgroundColor=none;fillColor=#438DD5;fontColor=#ffffff;align=center;arcSize=10;strokeColor=#3C7FC0;metaEdit=1;metaData={&quot;c4Type&quot;:{&quot;editable&quot;:false}};points=[[0.25,0,0],[0.5,0,0],[0.75,0,0],[1,0.25,0],[1,0.5,0],[1,0.75,0],[0.75,1,0],[0.5,1,0],[0.25,1,0],[0,0.75,0],[0,0.5,0],[0,0.25,0]];" parent="6M9tTkYtrs8H_QPtwX7E-1" vertex="1">
                        <mxGeometry x="-120" y="1320" width="200" height="120" as="geometry"/>
                    </mxCell>
                </object>
                <object placeholders="1" c4Name="Балансировщик соединений" c4Type="Container" c4Technology="NginX" c4Description="Производит балансировку нагрузки" label="&lt;b&gt;%c4Name%&lt;/b&gt;&lt;div&gt;[%c4Type%: %c4Technology%]&lt;/div&gt;&lt;br&gt;&lt;div&gt;%c4Description%&lt;/div&gt;" id="I1NneJb7lL_V8w7zGU2I-4">
                    <mxCell style="rounded=1;whiteSpace=wrap;html=1;labelBackgroundColor=none;fillColor=#438DD5;fontColor=#ffffff;align=center;arcSize=10;strokeColor=#3C7FC0;metaEdit=1;metaData={&quot;c4Type&quot;:{&quot;editable&quot;:false}};points=[[0.25,0,0],[0.5,0,0],[0.75,0,0],[1,0.25,0],[1,0.5,0],[1,0.75,0],[0.75,1,0],[0.5,1,0],[0.25,1,0],[0,0.75,0],[0,0.5,0],[0,0.25,0]];" parent="6M9tTkYtrs8H_QPtwX7E-1" vertex="1">
                        <mxGeometry x="-120" y="1520" width="200" height="120" as="geometry"/>
                    </mxCell>
                </object>
                <object placeholders="1" c4Type="Database" c4Technology="Oracle Database 12" c4Description="Хранение пользовательских данных" label="%c4Type%&lt;div style=&quot;font-size: 12px;&quot;&gt;[Container:&amp;nbsp;%c4Technology%]&lt;/div&gt;&lt;br style=&quot;font-size: 12px;&quot;&gt;&lt;div style=&quot;font-size: 12px;&quot;&gt;%c4Description%&lt;/div&gt;" id="I1NneJb7lL_V8w7zGU2I-6">
                    <mxCell style="shape=cylinder;whiteSpace=wrap;html=1;boundedLbl=1;rounded=0;labelBackgroundColor=none;fillColor=#438DD5;fontSize=12;fontColor=#ffffff;align=center;strokeColor=#3C7FC0;metaEdit=1;points=[[0.5,0,0],[1,0.25,0],[1,0.5,0],[1,0.75,0],[0.5,1,0],[0,0.75,0],[0,0.5,0],[0,0.25,0]];metaData={&quot;c4Type&quot;:{&quot;editable&quot;:false}};" parent="6M9tTkYtrs8H_QPtwX7E-1" vertex="1">
                        <mxGeometry x="200" y="1920" width="200" height="120" as="geometry"/>
                    </mxCell>
                </object>
                <object placeholders="1" c4Name="Брокер" c4Type="Container" c4Technology="e.g. Apache Kafka, etc." c4Description="Очередь сформированных подписок на оплату" label="&lt;font style=&quot;font-size: 16px&quot;&gt;&lt;b&gt;%c4Name%&lt;/b&gt;&lt;/font&gt;&lt;div&gt;[%c4Type%:&amp;nbsp;%c4Technology%]&lt;/div&gt;&lt;br&gt;&lt;div&gt;&lt;font style=&quot;font-size: 11px&quot;&gt;&lt;font&gt;%c4Description%&lt;/font&gt;&lt;/font&gt;&lt;/div&gt;" id="I1NneJb7lL_V8w7zGU2I-7">
                    <mxCell style="shape=cylinder3;size=17.52941176470563;direction=south;whiteSpace=wrap;html=1;boundedLbl=1;rounded=0;labelBackgroundColor=none;fillColor=#438dd5;fontSize=12;fontColor=#FFFFFF;align=center;strokeColor=#0E7DAD;metaEdit=1;points=[[0.5,0,0],[1,0.25,0],[1,0.5,0],[1,0.75,0],[0.5,1,0],[0,0.75,0],[0,0.5,0],[0,0.25,0]];resizable=0;" parent="6M9tTkYtrs8H_QPtwX7E-1" vertex="1">
                        <mxGeometry x="500" y="1520" width="240" height="120" as="geometry"/>
                    </mxCell>
                </object>
                <object placeholders="1" c4Name="Веб-приложение" c4Type="Container" c4Technology="JavaScript, React" c4Description="Предоставляет пользователям доступ к различным действиям" label="&lt;b&gt;%c4Name%&lt;/b&gt;&lt;div&gt;[%c4Type%: %c4Technology%]&lt;/div&gt;&lt;br&gt;&lt;div&gt;%c4Description%&lt;/div&gt;" id="I1NneJb7lL_V8w7zGU2I-8">
                    <mxCell style="rounded=1;whiteSpace=wrap;html=1;labelBackgroundColor=none;fillColor=#438DD5;fontColor=#ffffff;align=center;arcSize=10;strokeColor=#3C7FC0;metaEdit=1;metaData={&quot;c4Type&quot;:{&quot;editable&quot;:false}};points=[[0.25,0,0],[0.5,0,0],[0.75,0,0],[1,0.25,0],[1,0.5,0],[1,0.75,0],[0.75,1,0],[0.5,1,0],[0.25,1,0],[0,0.75,0],[0,0.5,0],[0,0.25,0]];" parent="6M9tTkYtrs8H_QPtwX7E-1" vertex="1">
                        <mxGeometry x="-120" y="920" width="200" height="120" as="geometry"/>
                    </mxCell>
                </object>
                <object placeholders="1" c4Name="Каталог фильмов" c4Type="Container" c4Technology="Java, SpringBoof" c4Description="Обеспечивает доступ к катологу с контентом" label="&lt;b&gt;%c4Name%&lt;/b&gt;&lt;div&gt;[%c4Type%: %c4Technology%]&lt;/div&gt;&lt;br&gt;&lt;div&gt;%c4Description%&lt;/div&gt;" id="HFL-XtzQsI25Pv983zVo-2">
                    <mxCell style="rounded=1;whiteSpace=wrap;html=1;labelBackgroundColor=none;fillColor=#438DD5;fontColor=#ffffff;align=center;arcSize=10;strokeColor=#3C7FC0;metaEdit=1;metaData={&quot;c4Type&quot;:{&quot;editable&quot;:false}};points=[[0.25,0,0],[0.5,0,0],[0.75,0,0],[1,0.25,0],[1,0.5,0],[1,0.75,0],[0.75,1,0],[0.5,1,0],[0.25,1,0],[0,0.75,0],[0,0.5,0],[0,0.25,0]];" parent="6M9tTkYtrs8H_QPtwX7E-1" vertex="1">
                        <mxGeometry x="200" y="1320" width="200" height="120" as="geometry"/>
                    </mxCell>
                </object>
                <object placeholders="1" c4Name="Процессинг мэтча фильмов" c4Type="Container" c4Technology="Java, SpringBoof" c4Description="Обеспечивает доступ к катологу с контентом" label="&lt;b&gt;%c4Name%&lt;/b&gt;&lt;div&gt;[%c4Type%: %c4Technology%]&lt;/div&gt;&lt;br&gt;&lt;div&gt;%c4Description%&lt;/div&gt;" id="HFL-XtzQsI25Pv983zVo-3">
                    <mxCell style="rounded=1;whiteSpace=wrap;html=1;labelBackgroundColor=none;fillColor=#438DD5;fontColor=#ffffff;align=center;arcSize=10;strokeColor=#3C7FC0;metaEdit=1;metaData={&quot;c4Type&quot;:{&quot;editable&quot;:false}};points=[[0.25,0,0],[0.5,0,0],[0.75,0,0],[1,0.25,0],[1,0.5,0],[1,0.75,0],[0.75,1,0],[0.5,1,0],[0.25,1,0],[0,0.75,0],[0,0.5,0],[0,0.25,0]];" parent="6M9tTkYtrs8H_QPtwX7E-1" vertex="1">
                        <mxGeometry x="194.5" y="1520" width="200" height="120" as="geometry"/>
                    </mxCell>
                </object>
                <object placeholders="1" c4Type="Database" c4Technology="Oracle Database 12" c4Description="Хранение пользовательских данных" label="%c4Type%&lt;div style=&quot;font-size: 12px;&quot;&gt;[Container:&amp;nbsp;%c4Technology%]&lt;/div&gt;&lt;br style=&quot;font-size: 12px;&quot;&gt;&lt;div style=&quot;font-size: 12px;&quot;&gt;%c4Description%&lt;/div&gt;" id="HFL-XtzQsI25Pv983zVo-4">
                    <mxCell style="shape=cylinder;whiteSpace=wrap;html=1;boundedLbl=1;rounded=0;labelBackgroundColor=none;fillColor=#438DD5;fontSize=12;fontColor=#ffffff;align=center;strokeColor=#3C7FC0;metaEdit=1;points=[[0.5,0,0],[1,0.25,0],[1,0.5,0],[1,0.75,0],[0.5,1,0],[0,0.75,0],[0,0.5,0],[0,0.25,0]];metaData={&quot;c4Type&quot;:{&quot;editable&quot;:false}};" parent="6M9tTkYtrs8H_QPtwX7E-1" vertex="1">
                        <mxGeometry x="200" y="1720" width="200" height="120" as="geometry"/>
                    </mxCell>
                </object>
                <object placeholders="1" c4Name="Шлюз оплаты" c4Type="Container" c4Technology="Java, SpringBoof" c4Description="Обеспечивает взаимодействие с системами интернет-платежей" label="&lt;b&gt;%c4Name%&lt;/b&gt;&lt;div&gt;[%c4Type%: %c4Technology%]&lt;/div&gt;&lt;br&gt;&lt;div&gt;%c4Description%&lt;/div&gt;" id="HFL-XtzQsI25Pv983zVo-5">
                    <mxCell style="rounded=1;whiteSpace=wrap;html=1;labelBackgroundColor=none;fillColor=#438DD5;fontColor=#ffffff;align=center;arcSize=10;strokeColor=#3C7FC0;metaEdit=1;metaData={&quot;c4Type&quot;:{&quot;editable&quot;:false}};points=[[0.25,0,0],[0.5,0,0],[0.75,0,0],[1,0.25,0],[1,0.5,0],[1,0.75,0],[0.75,1,0],[0.5,1,0],[0.25,1,0],[0,0.75,0],[0,0.5,0],[0,0.25,0]];" parent="6M9tTkYtrs8H_QPtwX7E-1" vertex="1">
                        <mxGeometry x="520" y="1920" width="200" height="120" as="geometry"/>
                    </mxCell>
                </object>
                <object placeholders="1" c4Type="Relationship" c4Technology="HTTPS" c4Description="Перенаправляет&#10;запросы" label="&lt;div style=&quot;text-align: left&quot;&gt;&lt;div style=&quot;text-align: center&quot;&gt;&lt;b&gt;%c4Description%&lt;/b&gt;&lt;/div&gt;&lt;div style=&quot;text-align: center&quot;&gt;[%c4Technology%]&lt;/div&gt;&lt;/div&gt;" id="6HpoelZD_LiTaXzR5Wjn-0">
                    <mxCell style="edgeStyle=none;rounded=0;html=1;jettySize=auto;orthogonalLoop=1;strokeColor=#707070;strokeWidth=2;fontColor=#707070;jumpStyle=none;dashed=1;metaEdit=1;metaData={&quot;c4Type&quot;:{&quot;editable&quot;:false}};exitX=1;exitY=0.5;exitDx=0;exitDy=0;exitPerimeter=0;entryX=0.25;entryY=0;entryDx=0;entryDy=0;entryPerimeter=0;" parent="6M9tTkYtrs8H_QPtwX7E-1" source="I1NneJb7lL_V8w7zGU2I-8" target="I1NneJb7lL_V8w7zGU2I-1" edge="1">
                        <mxGeometry width="160" relative="1" as="geometry">
                            <mxPoint x="170" y="995" as="sourcePoint"/>
                            <mxPoint x="279" y="920" as="targetPoint"/>
                            <Array as="points">
                                <mxPoint x="250" y="980"/>
                            </Array>
                        </mxGeometry>
                    </mxCell>
                </object>
                <object placeholders="1" c4Type="Relationship" c4Technology="HTTPS" c4Description="Перенаправляет&#10;запросы" label="&lt;div style=&quot;text-align: left&quot;&gt;&lt;div style=&quot;text-align: center&quot;&gt;&lt;b&gt;%c4Description%&lt;/b&gt;&lt;/div&gt;&lt;div style=&quot;text-align: center&quot;&gt;[%c4Technology%]&lt;/div&gt;&lt;/div&gt;" id="6HpoelZD_LiTaXzR5Wjn-1">
                    <mxCell style="edgeStyle=none;rounded=0;html=1;jettySize=auto;orthogonalLoop=1;strokeColor=#707070;strokeWidth=2;fontColor=#707070;jumpStyle=none;dashed=1;metaEdit=1;metaData={&quot;c4Type&quot;:{&quot;editable&quot;:false}};exitX=0;exitY=0.5;exitDx=0;exitDy=0;exitPerimeter=0;entryX=0.75;entryY=0;entryDx=0;entryDy=0;entryPerimeter=0;" parent="6M9tTkYtrs8H_QPtwX7E-1" source="I1NneJb7lL_V8w7zGU2I-0" target="I1NneJb7lL_V8w7zGU2I-1" edge="1">
                        <mxGeometry width="160" relative="1" as="geometry">
                            <mxPoint x="234.5" y="960" as="sourcePoint"/>
                            <mxPoint x="404.5" y="1060" as="targetPoint"/>
                            <Array as="points">
                                <mxPoint x="350" y="980"/>
                            </Array>
                        </mxGeometry>
                    </mxCell>
                </object>
                <object placeholders="1" c4Type="Relationship" c4Technology="JSON/HTTPS" c4Description="Запрашивает&#10;авторизацию" label="&lt;div style=&quot;text-align: left&quot;&gt;&lt;div style=&quot;text-align: center&quot;&gt;&lt;b&gt;%c4Description%&lt;/b&gt;&lt;/div&gt;&lt;div style=&quot;text-align: center&quot;&gt;[%c4Technology%]&lt;/div&gt;&lt;/div&gt;" id="6HpoelZD_LiTaXzR5Wjn-2">
                    <mxCell style="edgeStyle=none;rounded=0;html=1;jettySize=auto;orthogonalLoop=1;strokeColor=#707070;strokeWidth=2;fontColor=#707070;jumpStyle=none;dashed=1;metaEdit=1;metaData={&quot;c4Type&quot;:{&quot;editable&quot;:false}};exitX=1;exitY=0.5;exitDx=0;exitDy=0;exitPerimeter=0;entryX=0;entryY=0.5;entryDx=0;entryDy=0;entryPerimeter=0;" parent="6M9tTkYtrs8H_QPtwX7E-1" source="I1NneJb7lL_V8w7zGU2I-1" target="I1NneJb7lL_V8w7zGU2I-2" edge="1">
                        <mxGeometry width="160" relative="1" as="geometry">
                            <mxPoint x="620" y="1200" as="sourcePoint"/>
                            <mxPoint x="450" y="1300" as="targetPoint"/>
                            <Array as="points"/>
                        </mxGeometry>
                    </mxCell>
                </object>
                <object placeholders="1" c4Type="Relationship" c4Technology="JSON/HTTPS" c4Description="Запрашивает каталог фильмов" label="&lt;div style=&quot;text-align: left&quot;&gt;&lt;div style=&quot;text-align: center&quot;&gt;&lt;b&gt;%c4Description%&lt;/b&gt;&lt;/div&gt;&lt;div style=&quot;text-align: center&quot;&gt;[%c4Technology%]&lt;/div&gt;&lt;/div&gt;" id="6HpoelZD_LiTaXzR5Wjn-4">
                    <mxCell style="edgeStyle=none;rounded=0;html=1;jettySize=auto;orthogonalLoop=1;strokeColor=#707070;strokeWidth=2;fontColor=#707070;jumpStyle=none;dashed=1;metaEdit=1;metaData={&quot;c4Type&quot;:{&quot;editable&quot;:false}};exitX=0.5;exitY=1;exitDx=0;exitDy=0;exitPerimeter=0;entryX=0.5;entryY=0;entryDx=0;entryDy=0;entryPerimeter=0;" parent="6M9tTkYtrs8H_QPtwX7E-1" source="I1NneJb7lL_V8w7zGU2I-1" target="HFL-XtzQsI25Pv983zVo-2" edge="1">
                        <mxGeometry y="-1" width="160" relative="1" as="geometry">
                            <mxPoint x="420" y="1219.23" as="sourcePoint"/>
                            <mxPoint x="540" y="1219.23" as="targetPoint"/>
                            <Array as="points"/>
                            <mxPoint as="offset"/>
                        </mxGeometry>
                    </mxCell>
                </object>
                <object placeholders="1" c4Type="Relationship" c4Technology="JSON/HTTPS" c4Description="Передает&#10;изменения&#10;каталога&#10;фильмов" label="&lt;div style=&quot;text-align: left&quot;&gt;&lt;div style=&quot;text-align: center&quot;&gt;&lt;b&gt;%c4Description%&lt;/b&gt;&lt;/div&gt;&lt;div style=&quot;text-align: center&quot;&gt;[%c4Technology%]&lt;/div&gt;&lt;/div&gt;" id="6HpoelZD_LiTaXzR5Wjn-5">
                    <mxCell style="edgeStyle=none;rounded=0;html=1;jettySize=auto;orthogonalLoop=1;strokeColor=#707070;strokeWidth=2;fontColor=#707070;jumpStyle=none;dashed=1;metaEdit=1;metaData={&quot;c4Type&quot;:{&quot;editable&quot;:false}};exitX=1;exitY=0.5;exitDx=0;exitDy=0;exitPerimeter=0;entryX=0;entryY=0.5;entryDx=0;entryDy=0;entryPerimeter=0;" parent="6M9tTkYtrs8H_QPtwX7E-1" source="I1NneJb7lL_V8w7zGU2I-3" target="HFL-XtzQsI25Pv983zVo-2" edge="1">
                        <mxGeometry y="-1" width="160" relative="1" as="geometry">
                            <mxPoint x="150" y="1380" as="sourcePoint"/>
                            <mxPoint x="150" y="1460" as="targetPoint"/>
                            <Array as="points"/>
                            <mxPoint as="offset"/>
                        </mxGeometry>
                    </mxCell>
                </object>
                <object placeholders="1" c4Type="Relationship" c4Technology="JSON/HTTPS" c4Description="Передает (получает)&#10;запросы к внешним системам" label="&lt;div style=&quot;text-align: left&quot;&gt;&lt;div style=&quot;text-align: center&quot;&gt;&lt;b&gt;%c4Description%&lt;/b&gt;&lt;/div&gt;&lt;div style=&quot;text-align: center&quot;&gt;[%c4Technology%]&lt;/div&gt;&lt;/div&gt;" id="6HpoelZD_LiTaXzR5Wjn-6">
                    <mxCell style="edgeStyle=none;rounded=0;html=1;jettySize=auto;orthogonalLoop=1;strokeColor=#707070;strokeWidth=2;fontColor=#707070;jumpStyle=none;dashed=1;metaEdit=1;metaData={&quot;c4Type&quot;:{&quot;editable&quot;:false}};exitX=0.5;exitY=0;exitDx=0;exitDy=0;exitPerimeter=0;entryX=0.5;entryY=1;entryDx=0;entryDy=0;entryPerimeter=0;" parent="6M9tTkYtrs8H_QPtwX7E-1" source="I1NneJb7lL_V8w7zGU2I-4" target="I1NneJb7lL_V8w7zGU2I-3" edge="1">
                        <mxGeometry width="160" relative="1" as="geometry">
                            <mxPoint x="70" y="1470" as="sourcePoint"/>
                            <mxPoint x="190" y="1470" as="targetPoint"/>
                            <Array as="points"/>
                            <mxPoint as="offset"/>
                        </mxGeometry>
                    </mxCell>
                </object>
                <object placeholders="1" c4Type="Relationship" c4Technology="JSON/HTTPS" c4Description="Запрашивает &#10;информацию&#10;для формирования&#10;сессии мэтча" label="&lt;div style=&quot;text-align: left&quot;&gt;&lt;div style=&quot;text-align: center&quot;&gt;&lt;b&gt;%c4Description%&lt;/b&gt;&lt;/div&gt;&lt;div style=&quot;text-align: center&quot;&gt;[%c4Technology%]&lt;/div&gt;&lt;/div&gt;" id="6HpoelZD_LiTaXzR5Wjn-7">
                    <mxCell style="edgeStyle=none;rounded=0;html=1;jettySize=auto;orthogonalLoop=1;strokeColor=#707070;strokeWidth=2;fontColor=#707070;jumpStyle=none;dashed=1;metaEdit=1;metaData={&quot;c4Type&quot;:{&quot;editable&quot;:false}};exitX=0;exitY=0.5;exitDx=0;exitDy=0;exitPerimeter=0;entryX=0.983;entryY=0.979;entryDx=0;entryDy=0;entryPerimeter=0;" parent="6M9tTkYtrs8H_QPtwX7E-1" source="HFL-XtzQsI25Pv983zVo-3" target="I1NneJb7lL_V8w7zGU2I-3" edge="1">
                        <mxGeometry width="160" relative="1" as="geometry">
                            <mxPoint x="100" y="1490" as="sourcePoint"/>
                            <mxPoint x="220" y="1490" as="targetPoint"/>
                            <Array as="points">
                                <mxPoint x="140" y="1580"/>
                                <mxPoint x="140" y="1437"/>
                            </Array>
                            <mxPoint as="offset"/>
                        </mxGeometry>
                    </mxCell>
                </object>
                <object placeholders="1" c4Type="Relationship" c4Technology="JSON/HTTPS" c4Description="Передает список фильмов&#10;для мэтчинга" label="&lt;div style=&quot;text-align: left&quot;&gt;&lt;div style=&quot;text-align: center&quot;&gt;&lt;b&gt;%c4Description%&lt;/b&gt;&lt;/div&gt;&lt;div style=&quot;text-align: center&quot;&gt;[%c4Technology%]&lt;/div&gt;&lt;/div&gt;" id="6HpoelZD_LiTaXzR5Wjn-8">
                    <mxCell style="edgeStyle=none;rounded=0;html=1;jettySize=auto;orthogonalLoop=1;strokeColor=#707070;strokeWidth=2;fontColor=#707070;jumpStyle=none;dashed=1;metaEdit=1;metaData={&quot;c4Type&quot;:{&quot;editable&quot;:false}};exitX=0.5;exitY=1;exitDx=0;exitDy=0;exitPerimeter=0;entryX=0.5;entryY=0;entryDx=0;entryDy=0;entryPerimeter=0;" parent="6M9tTkYtrs8H_QPtwX7E-1" edge="1">
                        <mxGeometry width="160" relative="1" as="geometry">
                            <mxPoint x="299.52" y="1440" as="sourcePoint"/>
                            <mxPoint x="299.52" y="1520" as="targetPoint"/>
                            <Array as="points"/>
                            <mxPoint as="offset"/>
                        </mxGeometry>
                    </mxCell>
                </object>
                <object placeholders="1" c4Type="Relationship" c4Technology="JSON/HTTPS" c4Description="Формирует запрос&#10;на оплату подписки" label="&lt;div style=&quot;text-align: left&quot;&gt;&lt;div style=&quot;text-align: center&quot;&gt;&lt;b&gt;%c4Description%&lt;/b&gt;&lt;/div&gt;&lt;div style=&quot;text-align: center&quot;&gt;[%c4Technology%]&lt;/div&gt;&lt;/div&gt;" id="6HpoelZD_LiTaXzR5Wjn-9">
                    <mxCell style="edgeStyle=none;rounded=0;html=1;jettySize=auto;orthogonalLoop=1;strokeColor=#707070;strokeWidth=2;fontColor=#707070;jumpStyle=none;dashed=1;metaEdit=1;metaData={&quot;c4Type&quot;:{&quot;editable&quot;:false}};exitX=1;exitY=0.5;exitDx=0;exitDy=0;exitPerimeter=0;entryX=0;entryY=0.5;entryDx=0;entryDy=0;entryPerimeter=0;" parent="6M9tTkYtrs8H_QPtwX7E-1" target="I1NneJb7lL_V8w7zGU2I-7" edge="1">
                        <mxGeometry x="-0.0667" width="160" relative="1" as="geometry">
                            <mxPoint x="394.5" y="1579.52" as="sourcePoint"/>
                            <mxPoint x="514.5" y="1579.52" as="targetPoint"/>
                            <Array as="points">
                                <mxPoint x="440" y="1580"/>
                                <mxPoint x="440" y="1490"/>
                                <mxPoint x="620" y="1490"/>
                            </Array>
                            <mxPoint as="offset"/>
                        </mxGeometry>
                    </mxCell>
                </object>
                <object placeholders="1" c4Type="Relationship" c4Technology="JDBC" c4Description="Чтение и запись в базу" label="&lt;div style=&quot;text-align: left&quot;&gt;&lt;div style=&quot;text-align: center&quot;&gt;&lt;b&gt;%c4Description%&lt;/b&gt;&lt;/div&gt;&lt;div style=&quot;text-align: center&quot;&gt;[%c4Technology%]&lt;/div&gt;&lt;/div&gt;" id="6HpoelZD_LiTaXzR5Wjn-10">
                    <mxCell style="edgeStyle=none;rounded=0;html=1;jettySize=auto;orthogonalLoop=1;strokeColor=#707070;strokeWidth=2;fontColor=#707070;jumpStyle=none;dashed=1;metaEdit=1;metaData={&quot;c4Type&quot;:{&quot;editable&quot;:false}};exitX=0.5;exitY=1;exitDx=0;exitDy=0;exitPerimeter=0;entryX=0.5;entryY=0;entryDx=0;entryDy=0;entryPerimeter=0;" parent="6M9tTkYtrs8H_QPtwX7E-1" target="HFL-XtzQsI25Pv983zVo-4" edge="1">
                        <mxGeometry width="160" relative="1" as="geometry">
                            <mxPoint x="299.52" y="1640" as="sourcePoint"/>
                            <mxPoint x="299.52" y="1720" as="targetPoint"/>
                            <Array as="points"/>
                            <mxPoint as="offset"/>
                        </mxGeometry>
                    </mxCell>
                </object>
                <object placeholders="1" c4Type="Relationship" c4Technology="Kafka TLS" c4Description="Передает запрос на оплату" label="&lt;div style=&quot;text-align: left&quot;&gt;&lt;div style=&quot;text-align: center&quot;&gt;&lt;b&gt;%c4Description%&lt;/b&gt;&lt;/div&gt;&lt;div style=&quot;text-align: center&quot;&gt;[%c4Technology%]&lt;/div&gt;&lt;/div&gt;" id="6HpoelZD_LiTaXzR5Wjn-13">
                    <mxCell style="edgeStyle=none;rounded=0;html=1;jettySize=auto;orthogonalLoop=1;strokeColor=#707070;strokeWidth=2;fontColor=#707070;jumpStyle=none;dashed=1;metaEdit=1;metaData={&quot;c4Type&quot;:{&quot;editable&quot;:false}};exitX=1;exitY=0.5;exitDx=0;exitDy=0;exitPerimeter=0;entryX=0.5;entryY=0;entryDx=0;entryDy=0;entryPerimeter=0;" parent="6M9tTkYtrs8H_QPtwX7E-1" source="I1NneJb7lL_V8w7zGU2I-7" target="HFL-XtzQsI25Pv983zVo-5" edge="1">
                        <mxGeometry width="160" relative="1" as="geometry">
                            <mxPoint x="599.52" y="1690" as="sourcePoint"/>
                            <mxPoint x="600" y="1770" as="targetPoint"/>
                            <Array as="points"/>
                            <mxPoint as="offset"/>
                        </mxGeometry>
                    </mxCell>
                </object>
                <object placeholders="1" c4Type="Relationship" c4Technology="JDBC" c4Description="Запись в базу" label="&lt;div style=&quot;text-align: left&quot;&gt;&lt;div style=&quot;text-align: center&quot;&gt;&lt;b&gt;%c4Description%&lt;/b&gt;&lt;/div&gt;&lt;div style=&quot;text-align: center&quot;&gt;[%c4Technology%]&lt;/div&gt;&lt;/div&gt;" id="6HpoelZD_LiTaXzR5Wjn-14">
                    <mxCell style="edgeStyle=none;rounded=0;html=1;jettySize=auto;orthogonalLoop=1;strokeColor=#707070;strokeWidth=2;fontColor=#707070;jumpStyle=none;dashed=1;metaEdit=1;metaData={&quot;c4Type&quot;:{&quot;editable&quot;:false}};exitX=0.25;exitY=0;exitDx=0;exitDy=0;exitPerimeter=0;entryX=1;entryY=0.5;entryDx=0;entryDy=0;entryPerimeter=0;" parent="6M9tTkYtrs8H_QPtwX7E-1" source="HFL-XtzQsI25Pv983zVo-5" target="HFL-XtzQsI25Pv983zVo-4" edge="1">
                        <mxGeometry x="-0.1" width="160" relative="1" as="geometry">
                            <mxPoint x="470" y="1800" as="sourcePoint"/>
                            <mxPoint x="470.48" y="1880" as="targetPoint"/>
                            <Array as="points">
                                <mxPoint x="570" y="1890"/>
                                <mxPoint x="440" y="1890"/>
                                <mxPoint x="440" y="1780"/>
                            </Array>
                            <mxPoint as="offset"/>
                        </mxGeometry>
                    </mxCell>
                </object>
                <object placeholders="1" c4Type="Relationship" c4Technology="JDBC" c4Description="Запись в базу" label="&lt;div style=&quot;text-align: left&quot;&gt;&lt;div style=&quot;text-align: center&quot;&gt;&lt;b&gt;%c4Description%&lt;/b&gt;&lt;/div&gt;&lt;div style=&quot;text-align: center&quot;&gt;[%c4Technology%]&lt;/div&gt;&lt;/div&gt;" id="6HpoelZD_LiTaXzR5Wjn-15">
                    <mxCell style="edgeStyle=none;rounded=0;html=1;jettySize=auto;orthogonalLoop=1;strokeColor=#707070;strokeWidth=2;fontColor=#707070;jumpStyle=none;dashed=1;metaEdit=1;metaData={&quot;c4Type&quot;:{&quot;editable&quot;:false}};exitX=0;exitY=0.5;exitDx=0;exitDy=0;exitPerimeter=0;entryX=1;entryY=0.5;entryDx=0;entryDy=0;entryPerimeter=0;" parent="6M9tTkYtrs8H_QPtwX7E-1" source="HFL-XtzQsI25Pv983zVo-5" target="I1NneJb7lL_V8w7zGU2I-6" edge="1">
                        <mxGeometry width="160" relative="1" as="geometry">
                            <mxPoint x="420" y="1940" as="sourcePoint"/>
                            <mxPoint x="420.48" y="2020" as="targetPoint"/>
                            <Array as="points"/>
                            <mxPoint as="offset"/>
                        </mxGeometry>
                    </mxCell>
                </object>
                <object placeholders="1" c4Type="Relationship" c4Technology="JSON/HTTPS" c4Description="Передает&#10;информацию&#10;о статусе мэтча" label="&lt;div style=&quot;text-align: left&quot;&gt;&lt;div style=&quot;text-align: center&quot;&gt;&lt;b&gt;%c4Description%&lt;/b&gt;&lt;/div&gt;&lt;div style=&quot;text-align: center&quot;&gt;[%c4Technology%]&lt;/div&gt;&lt;/div&gt;" id="6HpoelZD_LiTaXzR5Wjn-16">
                    <mxCell style="edgeStyle=none;rounded=0;html=1;jettySize=auto;orthogonalLoop=1;strokeColor=#707070;strokeWidth=2;fontColor=#707070;jumpStyle=none;dashed=1;metaEdit=1;metaData={&quot;c4Type&quot;:{&quot;editable&quot;:false}};exitX=0;exitY=0.027;exitDx=0;exitDy=0;exitPerimeter=0;entryX=1;entryY=0.5;entryDx=0;entryDy=0;entryPerimeter=0;" parent="6M9tTkYtrs8H_QPtwX7E-1" source="I1NneJb7lL_V8w7zGU2I-4" target="TIPBfkECAkFiBOAwYd2I-4" edge="1">
                        <mxGeometry x="0.7475" width="160" relative="1" as="geometry">
                            <mxPoint x="-200" y="1210" as="sourcePoint"/>
                            <mxPoint x="-200" y="1290" as="targetPoint"/>
                            <Array as="points">
                                <mxPoint x="-200" y="1523"/>
                                <mxPoint x="-200" y="1000"/>
                            </Array>
                            <mxPoint as="offset"/>
                        </mxGeometry>
                    </mxCell>
                </object>
                <object placeholders="1" c4Type="Relationship" c4Technology="JSON/HTTPS" c4Description="Создает сессию выбора" label="&lt;div style=&quot;text-align: left&quot;&gt;&lt;div style=&quot;text-align: center&quot;&gt;&lt;b&gt;%c4Description%&lt;/b&gt;&lt;/div&gt;&lt;div style=&quot;text-align: center&quot;&gt;[%c4Technology%]&lt;/div&gt;&lt;/div&gt;" id="6HpoelZD_LiTaXzR5Wjn-18">
                    <mxCell style="edgeStyle=none;rounded=0;html=1;jettySize=auto;orthogonalLoop=1;strokeColor=#707070;strokeWidth=2;fontColor=#707070;jumpStyle=none;dashed=1;metaEdit=1;metaData={&quot;c4Type&quot;:{&quot;editable&quot;:false}};exitX=0.25;exitY=1;exitDx=0;exitDy=0;exitPerimeter=0;entryX=0.5;entryY=0;entryDx=0;entryDy=0;entryPerimeter=0;" parent="6M9tTkYtrs8H_QPtwX7E-1" source="TIPBfkECAkFiBOAwYd2I-0" target="I1NneJb7lL_V8w7zGU2I-8" edge="1">
                        <mxGeometry x="-0.05" width="160" relative="1" as="geometry">
                            <mxPoint x="299.41" y="850" as="sourcePoint"/>
                            <mxPoint x="299.41" y="930" as="targetPoint"/>
                            <Array as="points">
                                <mxPoint x="260" y="870"/>
                                <mxPoint x="-20" y="870"/>
                            </Array>
                            <mxPoint x="1" as="offset"/>
                        </mxGeometry>
                    </mxCell>
                </object>
                <object placeholders="1" c4Type="Relationship" c4Technology="JSON/HTTPS" c4Description="Создает сессию выбора" label="&lt;div style=&quot;text-align: left&quot;&gt;&lt;div style=&quot;text-align: center&quot;&gt;&lt;b&gt;%c4Description%&lt;/b&gt;&lt;/div&gt;&lt;div style=&quot;text-align: center&quot;&gt;[%c4Technology%]&lt;/div&gt;&lt;/div&gt;" id="6HpoelZD_LiTaXzR5Wjn-19">
                    <mxCell style="edgeStyle=none;rounded=0;html=1;jettySize=auto;orthogonalLoop=1;strokeColor=#707070;strokeWidth=2;fontColor=#707070;jumpStyle=none;dashed=1;metaEdit=1;metaData={&quot;c4Type&quot;:{&quot;editable&quot;:false}};exitX=0.75;exitY=1;exitDx=0;exitDy=0;exitPerimeter=0;entryX=0.5;entryY=0;entryDx=0;entryDy=0;entryPerimeter=0;" parent="6M9tTkYtrs8H_QPtwX7E-1" source="TIPBfkECAkFiBOAwYd2I-0" target="I1NneJb7lL_V8w7zGU2I-0" edge="1">
                        <mxGeometry x="-0.05" width="160" relative="1" as="geometry">
                            <mxPoint x="410" y="890" as="sourcePoint"/>
                            <mxPoint x="90" y="970" as="targetPoint"/>
                            <Array as="points">
                                <mxPoint x="340" y="870"/>
                                <mxPoint x="620" y="870"/>
                            </Array>
                            <mxPoint x="1" as="offset"/>
                        </mxGeometry>
                    </mxCell>
                </object>
                <object placeholders="1" c4Type="Relationship" c4Technology="JSON/HTTPS" c4Description="Передает &#10;информацию&#10;об ошибках " label="&lt;div style=&quot;text-align: left&quot;&gt;&lt;div style=&quot;text-align: center&quot;&gt;&lt;b&gt;%c4Description%&lt;/b&gt;&lt;/div&gt;&lt;div style=&quot;text-align: center&quot;&gt;[%c4Technology%]&lt;/div&gt;&lt;/div&gt;" id="K0evpPlYzsW3lxkPmnka-0">
                    <mxCell style="edgeStyle=none;rounded=0;html=1;jettySize=auto;orthogonalLoop=1;strokeColor=#707070;strokeWidth=2;fontColor=#707070;jumpStyle=none;dashed=1;metaEdit=1;metaData={&quot;c4Type&quot;:{&quot;editable&quot;:false}};exitX=0;exitY=0.25;exitDx=0;exitDy=0;exitPerimeter=0;entryX=1;entryY=0.5;entryDx=0;entryDy=0;entryPerimeter=0;" parent="6M9tTkYtrs8H_QPtwX7E-1" source="I1NneJb7lL_V8w7zGU2I-4" target="TIPBfkECAkFiBOAwYd2I-3" edge="1">
                        <mxGeometry x="0.6984" width="160" relative="1" as="geometry">
                            <mxPoint x="-140" y="1800" as="sourcePoint"/>
                            <mxPoint x="-340" y="1250" as="targetPoint"/>
                            <Array as="points">
                                <mxPoint x="-220" y="1550"/>
                                <mxPoint x="-220" y="1160"/>
                            </Array>
                            <mxPoint as="offset"/>
                        </mxGeometry>
                    </mxCell>
                </object>
                <object placeholders="1" c4Type="Relationship" c4Technology="JSON/HTTPS" c4Description="Передает&#10;информацию&#10;о предпочтениях" label="&lt;div style=&quot;text-align: left&quot;&gt;&lt;div style=&quot;text-align: center&quot;&gt;&lt;b&gt;%c4Description%&lt;/b&gt;&lt;/div&gt;&lt;div style=&quot;text-align: center&quot;&gt;[%c4Technology%]&lt;/div&gt;&lt;/div&gt;" id="K0evpPlYzsW3lxkPmnka-1">
                    <mxCell style="edgeStyle=none;rounded=0;html=1;jettySize=auto;orthogonalLoop=1;strokeColor=#707070;strokeWidth=2;fontColor=#707070;jumpStyle=none;dashed=1;metaEdit=1;metaData={&quot;c4Type&quot;:{&quot;editable&quot;:false}};exitX=0;exitY=0.75;exitDx=0;exitDy=0;exitPerimeter=0;entryX=1;entryY=0.5;entryDx=0;entryDy=0;entryPerimeter=0;" parent="6M9tTkYtrs8H_QPtwX7E-1" source="I1NneJb7lL_V8w7zGU2I-4" target="TIPBfkECAkFiBOAwYd2I-10" edge="1">
                        <mxGeometry x="0.6467" width="160" relative="1" as="geometry">
                            <mxPoint x="-160" y="1630" as="sourcePoint"/>
                            <mxPoint x="-360" y="1210" as="targetPoint"/>
                            <Array as="points">
                                <mxPoint x="-240" y="1610"/>
                                <mxPoint x="-240" y="1320"/>
                            </Array>
                            <mxPoint as="offset"/>
                        </mxGeometry>
                    </mxCell>
                </object>
                <object placeholders="1" c4Type="Relationship" c4Technology="JSON/HTTPS" c4Description="Запрашивает &#10;доступ&#10;для запуска &#10;воспроизведения" label="&lt;div style=&quot;text-align: left&quot;&gt;&lt;div style=&quot;text-align: center&quot;&gt;&lt;b&gt;%c4Description%&lt;/b&gt;&lt;/div&gt;&lt;div style=&quot;text-align: center&quot;&gt;[%c4Technology%]&lt;/div&gt;&lt;/div&gt;" id="K0evpPlYzsW3lxkPmnka-4">
                    <mxCell style="edgeStyle=none;rounded=0;html=1;jettySize=auto;orthogonalLoop=1;strokeColor=#707070;strokeWidth=2;fontColor=#707070;jumpStyle=none;dashed=1;metaEdit=1;metaData={&quot;c4Type&quot;:{&quot;editable&quot;:false}};exitX=0.5;exitY=1;exitDx=0;exitDy=0;exitPerimeter=0;entryX=1;entryY=0.5;entryDx=0;entryDy=0;entryPerimeter=0;" parent="6M9tTkYtrs8H_QPtwX7E-1" source="I1NneJb7lL_V8w7zGU2I-4" target="TIPBfkECAkFiBOAwYd2I-6" edge="1">
                        <mxGeometry x="0.6275" width="160" relative="1" as="geometry">
                            <mxPoint x="-80" y="2220" as="sourcePoint"/>
                            <mxPoint x="-280" y="1800" as="targetPoint"/>
                            <Array as="points">
                                <mxPoint x="-20" y="1800"/>
                                <mxPoint x="-180" y="1800"/>
                            </Array>
                            <mxPoint as="offset"/>
                        </mxGeometry>
                    </mxCell>
                </object>
                <object placeholders="1" c4Type="Relationship" c4Technology="JSON/HTTPS" c4Description="Запрашивает &#10;доступ к чату" label="&lt;div style=&quot;text-align: left&quot;&gt;&lt;div style=&quot;text-align: center&quot;&gt;&lt;b&gt;%c4Description%&lt;/b&gt;&lt;/div&gt;&lt;div style=&quot;text-align: center&quot;&gt;[%c4Technology%]&lt;/div&gt;&lt;/div&gt;" id="K0evpPlYzsW3lxkPmnka-5">
                    <mxCell style="edgeStyle=none;rounded=0;html=1;jettySize=auto;orthogonalLoop=1;strokeColor=#707070;strokeWidth=2;fontColor=#707070;jumpStyle=none;dashed=1;metaEdit=1;metaData={&quot;c4Type&quot;:{&quot;editable&quot;:false}};exitX=0.75;exitY=1;exitDx=0;exitDy=0;exitPerimeter=0;entryX=1;entryY=0.5;entryDx=0;entryDy=0;entryPerimeter=0;" parent="6M9tTkYtrs8H_QPtwX7E-1" source="I1NneJb7lL_V8w7zGU2I-4" target="TIPBfkECAkFiBOAwYd2I-9" edge="1">
                        <mxGeometry x="0.73" width="160" relative="1" as="geometry">
                            <mxPoint x="-10" y="2460" as="sourcePoint"/>
                            <mxPoint x="-210" y="2040" as="targetPoint"/>
                            <Array as="points">
                                <mxPoint x="30" y="1960"/>
                                <mxPoint x="-130" y="1960"/>
                            </Array>
                            <mxPoint as="offset"/>
                        </mxGeometry>
                    </mxCell>
                </object>
                <object placeholders="1" c4Type="Relationship" c4Technology="JSON/HTTPS" c4Description="Запрашивает&#10;доступ&#10;к контенту" label="&lt;div style=&quot;text-align: left&quot;&gt;&lt;div style=&quot;text-align: center&quot;&gt;&lt;b&gt;%c4Description%&lt;/b&gt;&lt;/div&gt;&lt;div style=&quot;text-align: center&quot;&gt;[%c4Technology%]&lt;/div&gt;&lt;/div&gt;" id="K0evpPlYzsW3lxkPmnka-6">
                    <mxCell style="edgeStyle=none;rounded=0;html=1;jettySize=auto;orthogonalLoop=1;strokeColor=#707070;strokeWidth=2;fontColor=#707070;jumpStyle=none;dashed=1;metaEdit=1;metaData={&quot;c4Type&quot;:{&quot;editable&quot;:false}};exitX=0.25;exitY=1;exitDx=0;exitDy=0;exitPerimeter=0;entryX=1;entryY=0.5;entryDx=0;entryDy=0;entryPerimeter=0;" parent="6M9tTkYtrs8H_QPtwX7E-1" source="I1NneJb7lL_V8w7zGU2I-4" target="TIPBfkECAkFiBOAwYd2I-5" edge="1">
                        <mxGeometry x="0.535" width="160" relative="1" as="geometry">
                            <mxPoint x="-90" y="2060" as="sourcePoint"/>
                            <mxPoint x="-290" y="1640" as="targetPoint"/>
                            <Array as="points">
                                <mxPoint x="-70" y="1690"/>
                                <mxPoint x="-200" y="1690"/>
                                <mxPoint x="-280" y="1690"/>
                                <mxPoint x="-280" y="1640"/>
                            </Array>
                            <mxPoint as="offset"/>
                        </mxGeometry>
                    </mxCell>
                </object>
                <object placeholders="1" c4Type="Relationship" c4Technology="JSON/HTTPS" c4Description="Выгружает &#10;персональные&#10;данные" label="&lt;div style=&quot;text-align: left&quot;&gt;&lt;div style=&quot;text-align: center&quot;&gt;&lt;b&gt;%c4Description%&lt;/b&gt;&lt;/div&gt;&lt;div style=&quot;text-align: center&quot;&gt;[%c4Technology%]&lt;/div&gt;&lt;/div&gt;" id="K0evpPlYzsW3lxkPmnka-8">
                    <mxCell style="edgeStyle=none;rounded=0;html=1;jettySize=auto;orthogonalLoop=1;strokeColor=#707070;strokeWidth=2;fontColor=#707070;jumpStyle=none;dashed=1;metaEdit=1;metaData={&quot;c4Type&quot;:{&quot;editable&quot;:false}};exitX=0;exitY=0.954;exitDx=0;exitDy=0;exitPerimeter=0;entryX=1;entryY=0.5;entryDx=0;entryDy=0;entryPerimeter=0;" parent="6M9tTkYtrs8H_QPtwX7E-1" source="I1NneJb7lL_V8w7zGU2I-4" target="TIPBfkECAkFiBOAwYd2I-8" edge="1">
                        <mxGeometry x="0.5392" width="160" relative="1" as="geometry">
                            <mxPoint x="-170" y="1670" as="sourcePoint"/>
                            <mxPoint x="-370" y="1250" as="targetPoint"/>
                            <Array as="points">
                                <mxPoint x="-260" y="1634"/>
                                <mxPoint x="-260" y="1480"/>
                            </Array>
                            <mxPoint as="offset"/>
                        </mxGeometry>
                    </mxCell>
                </object>
                <object placeholders="1" c4Type="Relationship" c4Technology="JSON/HTTPS" c4Description="Запрашивает&#10;данные&#10;об аккаунте" label="&lt;div style=&quot;text-align: left&quot;&gt;&lt;div style=&quot;text-align: center&quot;&gt;&lt;b&gt;%c4Description%&lt;/b&gt;&lt;/div&gt;&lt;div style=&quot;text-align: center&quot;&gt;[%c4Technology%]&lt;/div&gt;&lt;/div&gt;" id="VgaRWD1RcdZI-YLuhaNJ-0">
                    <mxCell style="edgeStyle=none;rounded=0;html=1;jettySize=auto;orthogonalLoop=1;strokeColor=#707070;strokeWidth=2;fontColor=#707070;jumpStyle=none;dashed=1;metaEdit=1;metaData={&quot;c4Type&quot;:{&quot;editable&quot;:false}};exitX=1;exitY=0.5;exitDx=0;exitDy=0;exitPerimeter=0;entryX=0;entryY=0.5;entryDx=0;entryDy=0;entryPerimeter=0;" parent="6M9tTkYtrs8H_QPtwX7E-1" edge="1">
                        <mxGeometry width="160" relative="1" as="geometry">
                            <mxPoint x="720" y="1179.38" as="sourcePoint"/>
                            <mxPoint x="840" y="1179.38" as="targetPoint"/>
                            <Array as="points"/>
                            <mxPoint as="offset"/>
                        </mxGeometry>
                    </mxCell>
                </object>
                <object placeholders="1" c4Type="Relationship" c4Technology="JSON/HTTPS" c4Description="Запрашивает &#10;обработку &#10;платежа" label="&lt;div style=&quot;text-align: left&quot;&gt;&lt;div style=&quot;text-align: center&quot;&gt;&lt;b&gt;%c4Description%&lt;/b&gt;&lt;/div&gt;&lt;div style=&quot;text-align: center&quot;&gt;[%c4Technology%]&lt;/div&gt;&lt;/div&gt;" id="VgaRWD1RcdZI-YLuhaNJ-1">
                    <mxCell style="edgeStyle=none;rounded=0;html=1;jettySize=auto;orthogonalLoop=1;strokeColor=#707070;strokeWidth=2;fontColor=#707070;jumpStyle=none;dashed=1;metaEdit=1;metaData={&quot;c4Type&quot;:{&quot;editable&quot;:false}};exitX=1;exitY=0.5;exitDx=0;exitDy=0;exitPerimeter=0;entryX=0;entryY=0.5;entryDx=0;entryDy=0;entryPerimeter=0;" parent="6M9tTkYtrs8H_QPtwX7E-1" edge="1">
                        <mxGeometry width="160" relative="1" as="geometry">
                            <mxPoint x="720" y="1979.38" as="sourcePoint"/>
                            <mxPoint x="840" y="1979.38" as="targetPoint"/>
                            <Array as="points"/>
                            <mxPoint as="offset"/>
                        </mxGeometry>
                    </mxCell>
                </object>
                <mxCell id="PTrjjMOp_lQzIiWPFAcP-0" value="&lt;b style=&quot;forced-color-adjust: none; color: rgb(102, 102, 102); font-family: Helvetica; font-size: 12px; font-style: normal; font-variant-ligatures: normal; font-variant-caps: normal; letter-spacing: normal; orphans: 2; text-align: left; text-indent: 0px; text-transform: none; widows: 2; word-spacing: 0px; -webkit-text-stroke-width: 0px; white-space: nowrap; background-color: rgb(251, 251, 251); text-decoration-thickness: initial; text-decoration-style: initial; text-decoration-color: initial;&quot;&gt;Диаграмма контейнеров&lt;/b&gt;" style="text;whiteSpace=wrap;html=1;" parent="6M9tTkYtrs8H_QPtwX7E-1" vertex="1">
                    <mxGeometry x="-50" y="2080" width="180" height="40" as="geometry"/>
                </mxCell>
            </root>
        </mxGraphModel>
    </diagram>
</mxfile>